**ABCDEFGHIJKLMNOPQRSTUVWXYZabcdefghijklmnopqrstuvwxyz**************************
**PARASOLID !"#$%&'()*+,-./:;<=>?@[\]^_`{|}~0123456789**************************
**PART1;
MC=unknown;
MC_MODEL=unknown;
MC_ID=unknown;
OS=unknown;
OS_RELEASE=unknown;
FRU=sdl_parasolid_customer_support;
APPL=parasolid_acceptance_tests;
SITE=unknown;
USER=unknown;
FORMAT=text;
GUISE=transmit;
KEY=D:/workspace/PKToSTEP/build/Debug/Debug/../../../xt/hollow_cube_roundtrip;
FILE=d:/workspace/pktostep/build/debug/debug/../../../xt/hollow_cube_roundtrip.xmt_txt;
DATE=unknown;
**PART2;
SCH=SCH_3600142_36001;
USFLD_SIZE=0;
**PART3;
**END_OF_HEADER*****************************************************************
T51 : TRANSMIT FILE created by modeller version 360014223 SCH_3600142_36001_1300
6231 0 12 36 CCCI7 lattice222 0 CCCI4 mesh1006 0 I8 polyline1008 0 CCCCCCCDI5 ow
ner1040 0 CCCI16 boundary_lattice222 0 CCCI13 boundary_mesh1006 0 I17 boundary_p
olyline1008 0 CCCA16 index_map_offset0 0 1 dA9 index_map82 0 A17 node_id_index_m
ap82 0 A20 schema_embedding_map82 0 A5 child12 0 A14 lowest_node_id0 0 1 dA16 me
sh_offset_data206 0 Z1 324 0 0 0 0 0 0 0 0 0 1e3 1e-8 0 2 0 1 0 6 1 0 0 3 4 5 0
 0 6 7 8 0 0 0 0 0 0 0 50 255 3 324 0 9 10 0 0 +-.15 -.15 -.15 1 0 0 0 0 1 30 25
5 4 294 0 7 11 0 0 +-.15 -.15 -.15 0 0 1 29 255 5 222 0 8 12 0 -.15 -.15 .15 19
 9 CCCCCCI5 frame230 0 CA5 owner12 0 Z6 1 0 1 13 0 14 0 V0 16 255 7 176 0 ?15 0
 16 4 0 0 1 18 255 8 171 0 15 0 17 5 ?1 17 255 15 0 18 19 20 8 21 7 0 22 +18 17
 165 0 21 8 23 12 ?1 17 21 0 24 25 22 17 15 7 0 26 -18 23 159 0 19 17 27 28 ?1 2
9 12 221 0 17 28 5 -.15 -.15 -.15 29 28 220 0 23 29 12 -.15 .15 .15 29 29 219 0
 27 30 28 -.15 .15 -.15 18 27 157 0 31 23 32 29 ?1 29 30 218 0 32 33 29 -.15 .05
 -.05 18 32 149 0 34 27 35 30 ?1 29 33 217 0 35 36 30 -.15 .05 .05 18 35 144 0 3
7 32 38 33 ?1 29 36 216 0 38 39 33 -.15 -.05 .05 18 38 139 0 40 35 41 36 ?1 29 3
9 215 0 41 42 36 -.15 -.05 -.05 18 41 137 0 43 38 44 39 ?1 29 42 214 0 44 45 39
 .15 .15 .15 18 44 131 0 46 41 47 42 ?1 29 45 213 0 47 48 42 .15 .15 -.15 18 47
 129 0 49 44 50 45 ?1 29 48 212 0 50 51 45 .15 -.15 .15 18 50 127 0 52 47 53 48
 ?1 29 51 211 0 53 54 48 .15 -.15 -.15 18 53 126 0 25 50 55 51 ?1 29 54 210 0 55
 56 51 .05 -.15 .05 18 55 118 0 57 53 58 54 ?1 29 56 209 0 58 59 54 .05 -.15 -.0
5 18 58 113 0 60 55 61 56 ?1 29 59 208 0 61 62 56 -.05 -.15 -.05 18 61 107 0 63
 58 64 59 ?1 29 62 207 0 64 65 59 -.05 -.15 .05 18 64 105 0 66 61 67 62 ?1 29 65
 206 0 67 68 62 .05 -.05 .15 18 67 96 0 69 64 70 65 ?1 29 68 205 0 70 71 65 .05
 .05 .15 18 70 91 0 72 67 73 68 ?1 29 71 204 0 73 74 68 -.05 .05 .15 18 73 86 0
 75 70 76 71 ?1 29 74 203 0 76 77 71 -.05 -.05 .15 18 76 83 0 78 73 79 74 ?1 29
 77 202 0 79 80 74 -.05 -.05 .05 18 79 82 0 81 76 82 77 ?1 29 80 201 0 82 83 77
 .05 -.05 -.15 18 82 73 0 84 79 85 80 ?1 29 83 200 0 85 86 80 .05 .05 -.15 18 85
 68 0 87 82 88 83 ?1 29 86 199 0 88 89 83 -.05 .05 -.15 18 88 62 0 90 85 91 86 ?
1 29 89 198 0 91 92 86 -.05 -.05 -.05 18 91 60 0 93 88 94 89 ?1 29 92 197 0 94 9
5 89 -.05 -.05 -.15 18 94 59 0 96 91 97 92 ?1 29 95 196 0 97 98 92 .05 .15 .05 1
8 97 50 0 99 94 100 95 ?1 29 98 195 0 100 101 95 .05 .15 -.05 18 100 45 0 102 97
 103 98 ?1 29 101 194 0 103 104 98 -.05 .15 -.05 18 103 39 0 105 100 106 101 ?1
 29 104 193 0 106 107 101 -.05 .05 -.05 18 106 37 0 108 103 109 104 ?1 29 107 19
2 0 109 110 104 -.05 .15 .05 18 109 35 0 111 106 112 107 ?1 29 110 191 0 112 113
 107 -.05 .05 .05 18 112 34 0 114 109 115 110 ?1 29 113 190 0 115 116 110 .15 .0
5 -.05 18 115 24 0 117 112 118 113 ?1 29 116 189 0 118 119 113 .05 .05 -.05 18 1
18 23 0 120 115 121 116 ?1 29 119 188 0 121 122 116 .15 .05 .05 18 121 17 0 123
 118 124 119 ?1 29 122 187 0 124 125 119 .05 .05 .05 18 124 16 0 126 121 127 122
 ?1 29 125 186 0 127 128 122 .15 -.05 .05 18 127 11 0 129 124 130 125 ?1 29 128
 185 0 130 131 125 .05 -.05 .05 18 130 9 0 132 127 133 128 ?1 29 131 184 0 133 1
34 128 .15 -.05 -.05 18 133 7 0 135 130 136 131 ?1 29 134 183 0 136 0 131 .05 -.
05 -.05 18 136 6 0 137 133 0 134 ?1 17 137 0 138 139 140 136 141 142 0 143 +15 2
55 138 111 0 139 144 0 17 139 0 138 145 137 91 143 146 0 147 -17 140 0 138 137 1
45 58 63 148 0 0 +17 141 0 149 150 151 58 137 142 0 140 -16 142 114 0 ?137 152 1
48 153 0 0 1 17 143 0 154 155 156 136 139 146 0 157 +15 154 76 0 155 158 0 17 15
5 0 154 96 143 82 157 159 0 0 -17 156 0 154 143 96 91 160 161 0 0 +16 146 78 0 ?
143 162 163 164 0 0 1 17 157 0 165 166 167 136 155 159 0 168 +15 165 71 0 157 16
9 0 17 166 0 165 170 157 118 168 171 0 172 +17 167 0 165 157 170 82 87 173 0 155
 -16 159 72 0 ?157 173 174 175 0 0 1 17 168 0 176 177 178 136 166 171 0 151 -15
 176 28 0 178 179 0 17 177 0 176 117 168 133 180 181 0 0 +17 178 0 176 168 117 1
18 182 183 0 0 -16 171 29 0 ?166 184 185 186 0 0 1 17 151 0 149 141 132 136 187
 188 0 180 -15 149 116 0 132 189 0 17 132 0 149 151 150 130 190 152 0 191 +17 18
7 0 192 193 180 130 151 188 0 0 +16 188 8 0 ?187 194 181 195 0 0 1 17 180 0 192
 187 196 136 177 181 0 0 -15 192 4 0 180 197 0 17 196 0 192 180 193 133 198 199
 0 177 -16 181 5 0 ?177 188 0 200 0 0 1 30 200 223 0 181 0 195 0 +-.2 -.05 -.05
 1 0 0 30 195 224 0 188 200 201 0 +.05 -.05 -.2 0 0 1 30 201 225 0 194 195 202 0
 +-.2 -.05 .05 1 0 0 16 194 10 0 ?193 199 188 201 0 0 1 30 202 226 0 199 201 203
 0 +.15 -.05 -.1 0 0 1 16 199 12 0 ?198 204 194 202 0 0 1 30 203 227 0 204 202 2
05 0 +-.2 .05 .05 1 0 0 16 204 15 0 ?206 207 199 203 0 0 1 30 205 228 0 207 203
 208 0 +.15 -.1 .05 0 -1 0 16 207 18 0 ?129 209 204 205 0 0 1 30 208 229 0 209 2
05 210 0 +.05 -.2 .05 0 1 0 16 209 19 0 ?211 183 207 208 0 0 1 30 210 230 0 183
 208 212 0 +-.2 .05 -.05 1 0 0 16 183 22 0 ?182 213 209 210 0 0 1 30 212 231 0 2
13 210 214 0 +.15 .05 -.1 0 0 1 16 213 25 0 ?123 185 183 212 0 0 1 30 214 232 0
 185 212 186 0 +.05 .05 -.2 0 0 1 16 185 26 0 ?215 171 213 214 0 0 1 30 186 233
 0 171 214 216 0 +.05 -.2 -.05 0 1 0 30 216 234 0 184 186 217 0 +.15 -.1 -.05 0
 -1 0 16 184 30 0 ?135 218 171 216 0 0 1 30 217 235 0 218 216 219 0 +-.05 -.2 .0
5 0 1 0 16 218 33 0 ?220 221 184 217 0 0 1 30 219 236 0 221 217 222 0 +-.05 .05
 -.2 0 0 1 16 221 36 0 ?223 224 218 219 0 0 1 30 222 237 0 224 219 225 0 +-.05 -
.2 -.05 0 1 0 16 224 38 0 ?226 227 221 222 0 0 1 30 225 238 0 227 222 228 0 +-.0
5 .15 -.1 0 0 -1 16 227 40 0 ?229 230 224 225 0 0 1 30 228 239 0 230 225 231 0 +
-.05 .05 -.05 1 0 0 16 230 43 0 ?232 233 227 228 0 0 1 30 231 240 0 233 228 234
 0 +.05 -.2 -.05 0 1 0 16 233 44 0 ?235 236 230 231 0 0 1 30 234 241 0 236 231 2
37 0 +-.1 .15 -.05 1 0 0 16 236 46 0 ?238 239 233 234 0 0 1 30 237 242 0 239 234
 240 0 +.05 -.2 .05 0 1 0 16 239 49 0 ?241 242 236 237 0 0 1 30 240 243 0 242 23
7 243 0 +.05 .15 -.1 0 0 -1 16 242 51 0 ?102 244 239 240 0 0 1 30 243 244 0 244
 240 245 0 +-.1 .15 .05 1 0 0 16 244 54 0 ?99 246 242 243 0 0 1 30 245 245 0 246
 243 247 0 +-.05 .05 .05 1 0 0 16 246 55 0 ?248 161 244 245 0 0 1 30 247 246 0 1
61 245 249 0 +-.05 -.05 -.2 0 0 1 16 161 58 0 ?156 250 246 247 0 0 1 30 249 247
 0 250 247 251 0 +-.05 -.1 -.15 0 1 0 16 250 61 0 ?252 253 161 249 0 0 1 30 251
 248 0 253 249 254 0 +-.05 .05 -.2 0 0 1 16 253 63 0 ?255 256 250 251 0 0 1 30 2
54 249 0 256 251 257 0 +-.05 -.2 -.05 0 1 0 16 256 64 0 ?258 259 253 254 0 0 1 3
0 257 250 0 259 254 260 0 +.05 .05 -.2 0 0 1 16 259 67 0 ?120 174 256 257 0 0 1
 30 260 251 0 174 257 175 0 +-.1 .05 -.15 -1 0 0 16 174 69 0 ?90 159 259 260 0 0
 1 30 175 252 0 159 260 261 0 +.05 -.05 -.2 0 0 1 30 261 253 0 173 175 262 0 +.0
5 -.1 -.15 0 1 0 16 173 74 0 ?87 163 159 261 0 0 1 30 262 254 0 163 261 164 0 +-
.1 -.05 -.15 -1 0 0 16 163 77 0 ?96 146 173 262 0 0 1 30 164 255 0 146 262 263 0
 +-.05 -.05 -.05 1 0 0 30 263 256 0 162 164 264 0 +-.05 -.05 -.2 0 0 1 16 162 81
 0 ?265 266 146 263 0 0 1 30 264 257 0 266 263 267 0 +-.05 -.2 .05 0 1 0 16 266
 84 0 ?268 269 162 264 0 0 1 30 267 258 0 269 264 270 0 +-.05 .05 -.2 0 0 1 16 2
69 85 0 ?271 272 266 267 0 0 1 30 270 259 0 272 267 273 0 +-.05 -.1 .15 0 1 0 16
 272 87 0 ?274 275 269 270 0 0 1 30 273 260 0 275 270 276 0 +.05 .05 -.2 0 0 1 1
6 275 90 0 ?277 278 272 273 0 0 1 30 276 261 0 278 273 279 0 +-.1 .05 .15 -1 0 0
 16 278 92 0 ?75 280 275 276 0 0 1 30 279 262 0 280 276 281 0 +.05 -.05 -.2 0 0
 1 16 280 95 0 ?282 283 278 279 0 0 1 30 281 263 0 283 279 284 0 +.05 -.1 .15 0
 1 0 16 283 97 0 ?72 285 280 281 0 0 1 30 284 264 0 285 281 286 0 +-.05 -.05 .05
 1 0 0 16 285 100 0 ?191 287 283 284 0 0 1 30 286 265 0 287 284 288 0 +-.1 -.05
 .15 -1 0 0 16 287 101 0 ?78 289 285 286 0 0 1 30 288 266 0 289 286 290 0 +-.05
 -.2 .05 0 1 0 16 289 104 0 ?291 292 287 288 0 0 1 30 290 267 0 292 288 293 0 +-
.05 -.15 -.1 0 0 -1 16 292 106 0 ?294 295 289 290 0 0 1 30 293 268 0 295 290 296
 0 +-.05 -.2 -.05 0 1 0 16 295 108 0 ?297 298 292 293 0 0 1 30 296 269 0 298 293
 299 0 +-.05 -.05 -.2 0 0 1 16 298 109 0 ?300 148 295 296 0 0 1 30 299 270 0 148
 296 153 0 +-.1 -.15 -.05 1 0 0 16 148 112 0 ?140 142 298 299 0 0 1 30 153 271 0
 142 299 301 0 +.05 -.2 -.05 0 1 0 30 301 272 0 152 153 302 0 +.05 -.2 .05 0 1 0
 16 152 117 0 ?132 303 142 301 0 0 1 30 302 273 0 303 301 304 0 +.05 -.15 -.1 0
 0 -1 16 303 119 0 ?60 305 152 302 0 0 1 30 304 274 0 305 302 306 0 +-.1 -.15 .0
5 1 0 0 16 305 122 0 ?57 307 303 304 0 0 1 30 306 275 0 307 304 308 0 +.15 -.15
 -.15 0 0 1 16 307 125 0 ?309 310 305 306 0 0 1 30 308 276 0 310 306 311 0 +.15
 -.15 -.15 0 1 0 16 310 128 0 ?312 313 307 308 0 0 1 30 311 277 0 313 308 314 0
 +.15 .15 -.15 0 0 1 16 313 130 0 ?315 316 310 311 0 0 1 30 314 278 0 316 311 31
7 0 +.15 -.15 .15 0 1 0 16 316 132 0 ?318 319 313 314 0 0 1 30 317 279 0 319 314
 320 0 +-.2 -.05 -.05 1 0 0 16 319 136 0 ?93 321 316 317 0 0 1 30 320 280 0 321
 317 322 0 +-.15 -.05 -.1 0 0 1 16 321 138 0 ?323 324 319 320 0 0 1 30 322 281 0
 324 320 325 0 +-.2 -.05 .05 1 0 0 16 324 140 0 ?81 326 321 322 0 0 1 30 325 282
 0 326 322 327 0 +-.2 .05 .05 1 0 0 16 326 143 0 ?114 328 324 325 0 0 1 30 327 2
83 0 328 325 329 0 +-.15 -.1 .05 0 -1 0 16 328 145 0 ?40 330 326 327 0 0 1 30 32
9 284 0 330 327 331 0 +-.15 .05 -.1 0 0 1 16 330 148 0 ?37 332 328 329 0 0 1 30
 331 285 0 332 329 333 0 +-.2 .05 -.05 1 0 0 16 332 150 0 ?108 334 330 331 0 0 1
 30 333 286 0 334 331 335 0 +-.15 -.1 -.05 0 -1 0 16 334 153 0 ?43 336 332 333 0
 0 1 30 335 287 0 336 333 337 0 +-.15 .15 -.15 1 0 0 16 336 156 0 ?49 338 334 33
5 0 0 1 30 337 288 0 338 335 339 0 +-.15 .15 -.15 0 0 1 16 338 158 0 ?340 341 33
6 337 0 0 1 30 339 289 0 341 337 342 0 +-.15 .15 .15 1 0 0 16 341 160 0 ?46 343
 338 339 0 0 1 30 342 290 0 343 339 344 0 +-.15 -.15 -.15 0 1 0 16 343 164 0 ?31
 345 341 342 0 0 1 30 344 291 0 345 342 346 0 +-.15 -.15 -.15 1 0 0 16 345 166 0
 ?25 347 343 344 0 0 1 30 346 292 0 347 344 11 0 +-.15 -.15 .15 0 1 0 16 347 170
 0 ?19 16 345 346 0 0 1 30 11 293 0 16 346 4 0 +-.15 -.15 .15 1 0 0 16 16 172 0
 ?52 7 347 11 0 0 1 17 52 0 348 318 349 50 22 16 0 350 +15 348 169 0 349 351 0 1
7 318 0 348 352 52 44 350 316 0 315 +17 349 0 348 52 352 8 19 347 0 0 -17 22 0 2
4 21 309 8 52 16 0 349 -17 350 0 353 354 315 50 318 316 0 309 -15 353 124 0 354
 355 0 17 354 0 353 312 350 53 309 307 0 0 -17 315 0 353 350 312 44 356 313 0 0
 +17 309 0 24 22 25 50 354 307 0 0 +15 24 175 0 25 357 0 17 25 0 24 309 21 53 26
 345 0 358 +17 26 0 359 31 358 17 25 345 0 20 -17 358 0 359 26 49 53 312 310 0 3
54 -15 359 163 0 31 360 0 17 49 0 359 358 31 47 361 336 0 356 +17 312 0 353 315
 354 47 358 310 0 0 +17 31 0 359 49 26 27 20 343 0 362 +17 361 0 363 340 356 27
 49 336 0 0 -17 356 0 363 361 46 47 315 313 0 312 -15 363 155 0 361 364 0 17 46
 0 363 356 340 44 352 341 0 318 +17 340 0 363 46 361 23 362 338 0 0 +17 352 0 34
8 349 318 23 46 341 0 340 -17 362 0 18 20 19 27 340 338 0 361 -15 18 179 0 15 9
 0 17 20 0 18 15 362 17 31 343 0 0 -17 19 0 18 362 15 23 349 347 0 352 +14 255 9
 178 0 ?357 0 365 366 3 -0 0 357 0 14 14 357 174 0 ?351 9 367 366 10 -0 0 351 9
 14 15 365 180 0 34 9 18 13 255 366 182 0 0 0 9 0 0 13 0 13 14 2 0 0 0 0 0 0 6 9
 19 13 181 0 1 0 6 366 0 S0 17 34 0 365 37 368 32 43 334 0 369 -17 37 0 365 40 3
4 35 370 330 0 371 +17 368 0 365 34 40 41 323 321 0 372 -17 43 0 373 93 369 41 3
4 334 0 368 +17 369 0 373 43 258 32 108 332 0 370 -15 373 152 0 369 374 0 17 258
 0 373 369 93 106 147 256 0 255 +17 108 0 375 223 370 106 369 332 0 258 +17 370
 0 375 108 376 32 37 330 0 0 -15 375 147 0 223 377 0 17 376 0 375 370 223 35 114
 326 0 0 -17 223 0 375 376 108 112 378 221 0 379 +17 114 0 380 381 371 112 376 3
26 0 382 +15 380 142 0 114 383 0 17 381 0 380 384 114 79 268 266 0 385 -17 371 0
 380 114 384 35 40 328 0 376 -17 382 0 386 248 75 112 271 269 0 268 -15 386 89 0
 277 387 0 17 248 0 386 277 382 124 388 246 0 389 +17 75 0 386 382 277 73 390 27
8 0 274 +17 271 0 391 392 268 73 382 269 0 0 +17 268 0 391 271 385 112 381 266 0
 388 +15 391 80 0 385 393 0 17 385 0 391 268 392 79 265 162 0 0 -17 388 0 394 22
0 389 112 248 246 0 223 -15 394 53 0 220 395 0 17 220 0 394 99 388 109 379 218 0
 0 +17 389 0 394 388 99 124 241 239 0 215 -17 99 0 394 389 220 97 111 244 0 396
 +17 241 0 397 102 215 97 389 239 0 0 +17 215 0 397 241 398 124 172 185 0 211 +1
5 397 48 0 241 399 0 17 398 0 397 215 102 118 235 233 0 232 -17 172 0 400 182 40
1 118 215 185 0 178 -17 211 0 402 206 403 124 404 209 0 401 +15 402 14 0 206 405
 0 17 206 0 402 129 211 121 401 204 0 0 +17 403 0 402 211 129 130 193 194 0 187
 -17 404 0 406 282 126 130 211 209 0 403 -17 401 0 400 172 123 124 206 204 0 0 -
15 400 21 0 182 407 0 17 123 0 400 401 182 121 408 213 0 409 +17 182 0 400 123 1
72 115 178 183 0 0 +17 408 0 410 135 409 115 123 213 0 182 -17 409 0 410 408 198
 121 129 207 0 206 -15 410 133 0 135 355 353 17 198 0 410 409 135 127 196 199 0
 193 +17 129 0 402 403 206 127 409 207 0 198 +17 135 0 410 198 408 133 117 184 0
 196 +17 193 0 192 196 187 127 403 194 0 0 +17 117 0 176 178 177 115 135 184 0 4
08 -14 355 123 0 ?411 412 410 366 413 +0 0 411 412 14 14 411 120 0 ?189 355 414
 366 415 -0 0 189 355 14 14 412 134 0 ?355 383 416 366 417 +0 0 355 383 14 50 41
3 315 0 355 415 417 0 +.15 -.15 -.15 1 0 0 0 0 1 50 415 314 0 411 418 413 0 +-.0
5 -.2 .05 0 0 1 1 0 0 50 417 316 0 412 413 419 0 +-.2 -.05 -.05 0 1 0 0 0 1 50 4
19 317 0 383 417 420 0 +-.2 -.05 .05 0 0 1 1 0 0 14 383 141 0 ?412 377 380 366 4
19 -0 0 412 377 14 50 420 318 0 377 419 421 0 +-.2 .05 -.05 0 1 0 0 0 1 14 377 1
46 0 ?383 374 375 366 420 -0 0 383 374 14 50 421 319 0 374 420 422 0 +-.2 -.05 -
.05 0 0 1 1 0 0 14 374 151 0 ?377 364 373 366 421 +0 0 377 364 14 50 422 320 0 3
64 421 423 0 +-.15 .15 -.15 0 1 0 0 0 1 14 364 154 0 ?374 360 424 366 422 +0 0 3
74 360 14 50 423 321 0 360 422 425 0 +-.15 -.15 -.15 0 0 1 1 0 0 14 360 162 0 ?3
64 351 426 366 423 -0 0 364 351 14 50 425 322 0 351 423 10 0 +-.15 -.15 .15 0 0
 1 1 0 0 14 351 168 0 ?360 357 427 366 425 +0 0 360 357 14 50 10 323 0 357 425 3
 0 +-.15 -.15 -.15 0 1 0 0 0 1 15 427 173 0 78 351 348 17 78 0 427 274 428 76 69
 287 0 392 +17 274 0 427 390 78 73 392 272 0 271 +17 428 0 427 78 390 67 72 283
 0 282 -17 69 0 429 430 265 67 78 287 0 428 -17 392 0 391 385 271 76 274 272 0 2
65 -17 265 0 429 69 431 76 385 162 0 0 +15 429 99 0 430 432 0 17 431 0 429 265 4
30 79 191 285 0 381 -17 430 0 429 431 69 130 282 280 0 404 -17 191 0 414 190 291
 130 431 285 0 430 +15 414 121 0 191 411 0 17 190 0 414 66 191 55 132 152 0 0 -1
7 291 0 414 191 66 79 433 289 0 431 +17 66 0 414 291 190 64 57 305 0 434 -17 433
 0 435 294 300 64 291 289 0 0 -15 435 103 0 433 436 0 17 294 0 435 297 433 61 43
4 292 0 0 +17 300 0 435 433 297 79 437 298 0 291 +17 297 0 435 300 294 91 145 29
5 0 139 +17 437 0 416 372 81 91 300 298 0 297 -15 416 135 0 437 412 0 17 372 0 4
16 323 437 41 93 319 0 0 -17 81 0 416 437 323 79 384 324 0 300 +17 323 0 416 81
 372 38 368 321 0 0 +17 384 0 380 371 381 38 81 324 0 323 -17 93 0 373 258 43 91
 372 319 0 437 +17 145 0 138 140 139 61 297 295 0 294 -17 434 0 367 57 63 64 294
 292 0 433 -15 367 177 0 57 357 24 17 57 0 367 60 434 55 66 305 0 150 +17 63 0 3
67 434 60 61 140 148 0 145 -17 60 0 367 63 57 58 150 303 0 141 +17 150 0 149 132
 141 55 60 303 0 190 -14 436 102 0 ?432 144 435 366 438 +0 0 432 144 14 14 432 9
8 0 ?439 436 429 366 440 +0 0 439 436 14 14 144 110 0 ?436 189 138 366 441 +0 0
 436 189 14 50 438 311 0 436 440 441 0 +-.05 -.2 -.05 1 0 0 0 0 1 50 440 310 0 4
32 442 438 0 +-.05 -.05 -.2 0 1 0 0 0 1 50 441 312 0 144 438 418 0 +-.05 -.2 -.0
5 0 0 1 1 0 0 50 418 313 0 189 441 415 0 +.05 -.2 -.05 1 0 0 0 0 1 14 189 115 0
 ?144 411 149 366 418 -0 0 144 411 14 50 442 309 0 439 443 440 0 +.05 -.05 -.2 1
 0 0 0 0 1 14 439 93 0 ?387 432 406 366 442 -0 0 387 432 14 50 443 308 0 387 444
 442 0 +-.05 .05 -.2 0 1 0 0 0 1 14 387 88 0 ?393 439 386 366 443 -0 0 393 439 1
4 50 444 307 0 393 445 443 0 +-.05 -.05 -.2 1 0 0 0 0 1 14 393 79 0 ?158 387 391
 366 444 +0 0 158 387 14 50 445 306 0 158 446 444 0 +-.05 -.05 -.2 0 1 0 0 0 1 1
4 158 75 0 ?169 393 154 366 445 +0 0 169 393 14 50 446 305 0 169 447 445 0 +.05
 -.05 -.2 1 0 0 0 0 1 14 169 70 0 ?448 158 165 366 446 -0 0 448 158 14 50 447 30
4 0 448 449 446 0 +-.05 .05 -.2 0 1 0 0 0 1 14 448 65 0 ?450 169 451 366 447 -0
 0 450 169 14 50 449 303 0 450 452 447 0 +-.05 -.05 -.2 1 0 0 0 0 1 14 450 56 0
 ?395 448 453 366 449 +0 0 395 448 14 50 452 302 0 395 454 449 0 +-.05 -.2 .05 0
 0 1 1 0 0 14 395 52 0 ?399 450 394 366 452 -0 0 399 450 14 50 454 301 0 399 455
 452 0 +.05 -.2 -.05 1 0 0 0 0 1 14 399 47 0 ?456 395 397 366 454 -0 0 456 395 1
4 50 455 300 0 456 457 454 0 +-.05 -.2 -.05 0 0 1 1 0 0 14 456 41 0 ?458 399 459
 366 455 +0 0 458 399 14 50 457 299 0 458 460 455 0 +-.05 -.2 -.05 1 0 0 0 0 1 1
4 458 31 0 ?179 456 461 366 457 +0 0 179 456 14 50 460 298 0 179 462 457 0 +-.2
 -.05 -.05 0 0 1 1 0 0 14 179 27 0 ?407 458 176 366 460 +0 0 407 458 14 50 462 2
97 0 407 463 460 0 +-.2 .05 -.05 0 1 0 0 0 1 14 407 20 0 ?405 179 400 366 462 -0
 0 405 179 14 50 463 296 0 405 464 462 0 +-.2 -.05 .05 0 0 1 1 0 0 14 405 13 0 ?
197 407 402 366 463 -0 0 197 407 14 50 464 295 0 197 0 463 0 +-.2 -.05 -.05 0 1
 0 0 0 1 14 197 3 0 ?0 405 192 366 464 +0 0 0 405 14 15 461 32 0 379 458 0 17 37
9 0 461 378 465 112 220 218 0 0 -17 378 0 461 226 379 106 223 221 0 0 -17 465 0
 461 379 226 109 229 227 0 220 -17 226 0 461 465 378 103 466 224 0 0 +17 229 0 4
24 238 111 103 465 227 0 226 +15 424 161 0 111 364 363 17 238 0 424 396 229 100
 105 236 0 235 +17 111 0 424 229 396 109 99 244 0 465 -17 396 0 424 111 238 97 1
02 242 0 241 -17 102 0 397 398 241 100 396 242 0 238 +17 105 0 459 466 235 103 2
38 236 0 229 -17 235 0 459 105 232 100 398 233 0 0 +15 459 42 0 466 456 0 17 232
 0 459 235 466 118 467 230 0 166 +17 466 0 459 232 105 106 226 224 0 378 -17 467
 0 451 468 120 106 232 230 0 466 -15 451 66 0 120 448 0 17 468 0 451 469 467 88
 255 253 0 252 -17 120 0 451 467 469 118 170 259 0 398 +17 469 0 451 120 468 85
 90 174 0 170 -17 170 0 165 167 166 85 120 259 0 0 -17 90 0 426 470 87 88 469 17
4 0 468 +15 426 167 0 84 360 359 17 470 0 426 84 90 94 252 250 0 160 -17 87 0 42
6 90 84 85 167 173 0 469 +17 84 0 426 87 470 82 96 163 0 167 -17 96 0 154 156 15
5 94 84 163 0 470 +17 252 0 453 255 160 88 470 250 0 0 +17 160 0 453 252 147 94
 156 161 0 0 -15 453 57 0 160 450 0 17 147 0 453 160 255 91 258 256 0 156 -17 25
5 0 453 147 252 106 468 253 0 467 +15 406 94 0 282 439 0 17 282 0 406 72 404 67
 430 280 0 0 +17 72 0 406 126 282 70 428 283 0 390 +17 126 0 406 404 72 124 277
 275 0 248 -17 390 0 427 428 274 70 75 278 0 277 -17 277 0 386 75 248 70 126 275
 0 0 +17 40 0 365 368 37 38 371 328 0 384 +1 0 
