ISO-10303-21;
HEADER;
FILE_DESCRIPTION(('FreeCAD Model'),'2;1');
FILE_NAME('Open CASCADE Shape Model','2022-07-03T19:17:20',(''),(''),
  'Open CASCADE STEP processor 7.5','FreeCAD','Unknown');
FILE_SCHEMA(('AUTOMOTIVE_DESIGN { 1 0 10303 214 1 1 1 1 }'));
ENDSEC;
DATA;
#1 = APPLICATION_PROTOCOL_DEFINITION('international standard',
  'automotive_design',2000,#2);
#2 = APPLICATION_CONTEXT(
  'core data for automotive mechanical design processes');
#3 = SHAPE_DEFINITION_REPRESENTATION(#4,#10);
#4 = PRODUCT_DEFINITION_SHAPE('','',#5);
#5 = PRODUCT_DEFINITION('design','',#6,#9);
#6 = PRODUCT_DEFINITION_FORMATION('','',#7);
#7 = PRODUCT('80E05A60-B6AE-4CF2-8718-C7CCBA084153',
  '80E05A60-B6AE-4CF2-8718-C7CCBA084153','',(#8));
#8 = PRODUCT_CONTEXT('',#2,'mechanical');
#9 = PRODUCT_DEFINITION_CONTEXT('part definition',#2,'design');
#10 = SHAPE_REPRESENTATION('',(#11,#15,#19,#23,#27),#31);
#11 = AXIS2_PLACEMENT_3D('',#12,#13,#14);
#12 = CARTESIAN_POINT('',(0.,0.,0.));
#13 = DIRECTION('',(0.,0.,1.));
#14 = DIRECTION('',(1.,0.,-0.));
#15 = AXIS2_PLACEMENT_3D('',#16,#17,#18);
#16 = CARTESIAN_POINT('',(0.,0.,0.));
#17 = DIRECTION('',(-0.,0.,1.));
#18 = DIRECTION('',(2.22044604925E-16,-1.,0.));
#19 = AXIS2_PLACEMENT_3D('',#20,#21,#22);
#20 = CARTESIAN_POINT('',(0.,-4.163766865807E-14,3.1));
#21 = DIRECTION('',(-0.,0.,1.));
#22 = DIRECTION('',(2.22044604925E-16,-1.,0.));
#23 = AXIS2_PLACEMENT_3D('',#24,#25,#26);
#24 = CARTESIAN_POINT('',(3.524958103185E-17,1.27,-3.813265776613E-17));
#25 = DIRECTION('',(-2.391464933482E-17,1.201028591059E-16,-1.));
#26 = DIRECTION('',(-2.22044604925E-16,1.,1.201028591059E-16));
#27 = AXIS2_PLACEMENT_3D('',#28,#29,#30);
#28 = CARTESIAN_POINT('',(3.524958103185E-17,-1.27,-3.813265776613E-17)
  );
#29 = DIRECTION('',(-2.391464933482E-17,1.201028591059E-16,-1.));
#30 = DIRECTION('',(-2.22044604925E-16,1.,1.201028591059E-16));
#31 = ( GEOMETRIC_REPRESENTATION_CONTEXT(3) 
GLOBAL_UNCERTAINTY_ASSIGNED_CONTEXT((#35)) GLOBAL_UNIT_ASSIGNED_CONTEXT(
(#32,#33,#34)) REPRESENTATION_CONTEXT('Context #1',
  '3D Context with UNIT and UNCERTAINTY') );
#32 = ( LENGTH_UNIT() NAMED_UNIT(*) SI_UNIT(.MILLI.,.METRE.) );
#33 = ( NAMED_UNIT(*) PLANE_ANGLE_UNIT() SI_UNIT($,.RADIAN.) );
#34 = ( NAMED_UNIT(*) SI_UNIT($,.STERADIAN.) SOLID_ANGLE_UNIT() );
#35 = UNCERTAINTY_MEASURE_WITH_UNIT(LENGTH_MEASURE(1.E-07),#32,
  'distance_accuracy_value','confusion accuracy');
#36 = PRODUCT_RELATED_PRODUCT_CATEGORY('part',$,(#7));
#37 = ADVANCED_BREP_SHAPE_REPRESENTATION('',(#11,#38),#652);
#38 = MANIFOLD_SOLID_BREP('',#39);
#39 = CLOSED_SHELL('',(#40,#148,#256,#278,#318,#340,#380,#402,#419,#436,
    #448,#470,#487,#504,#516,#538,#555,#572,#584,#606,#623,#640));
#40 = ADVANCED_FACE('',(#41,#75,#109),#143,.F.);
#41 = FACE_BOUND('',#42,.T.);
#42 = EDGE_LOOP('',(#43,#53,#61,#69));
#43 = ORIENTED_EDGE('',*,*,#44,.T.);
#44 = EDGE_CURVE('',#45,#47,#49,.T.);
#45 = VERTEX_POINT('',#46);
#46 = CARTESIAN_POINT('',(-1.5875,0.3175,2.8));
#47 = VERTEX_POINT('',#48);
#48 = CARTESIAN_POINT('',(-0.9525,0.3175,2.8));
#49 = LINE('',#50,#51);
#50 = CARTESIAN_POINT('',(-1.5875,0.3175,2.8));
#51 = VECTOR('',#52,1.);
#52 = DIRECTION('',(1.,-8.537024980201E-17,0.));
#53 = ORIENTED_EDGE('',*,*,#54,.T.);
#54 = EDGE_CURVE('',#47,#55,#57,.T.);
#55 = VERTEX_POINT('',#56);
#56 = CARTESIAN_POINT('',(-0.9525,-0.3175,2.8));
#57 = LINE('',#58,#59);
#58 = CARTESIAN_POINT('',(-0.9525,-0.3175,2.8));
#59 = VECTOR('',#60,1.);
#60 = DIRECTION('',(0.,-1.,0.));
#61 = ORIENTED_EDGE('',*,*,#62,.T.);
#62 = EDGE_CURVE('',#55,#63,#65,.T.);
#63 = VERTEX_POINT('',#64);
#64 = CARTESIAN_POINT('',(-1.5875,-0.3175,2.8));
#65 = LINE('',#66,#67);
#66 = CARTESIAN_POINT('',(-1.5875,-0.3175,2.8));
#67 = VECTOR('',#68,1.);
#68 = DIRECTION('',(-1.,-8.537024980201E-17,0.));
#69 = ORIENTED_EDGE('',*,*,#70,.T.);
#70 = EDGE_CURVE('',#63,#45,#71,.T.);
#71 = LINE('',#72,#73);
#72 = CARTESIAN_POINT('',(-1.5875,-0.3175,2.8));
#73 = VECTOR('',#74,1.);
#74 = DIRECTION('',(0.,1.,0.));
#75 = FACE_BOUND('',#76,.T.);
#76 = EDGE_LOOP('',(#77,#87,#95,#103));
#77 = ORIENTED_EDGE('',*,*,#78,.T.);
#78 = EDGE_CURVE('',#79,#81,#83,.T.);
#79 = VERTEX_POINT('',#80);
#80 = CARTESIAN_POINT('',(2.5,-0.77,2.8));
#81 = VERTEX_POINT('',#82);
#82 = CARTESIAN_POINT('',(2.5,0.77,2.8));
#83 = LINE('',#84,#85);
#84 = CARTESIAN_POINT('',(2.5,-1.27,2.8));
#85 = VECTOR('',#86,1.);
#86 = DIRECTION('',(0.,1.,0.));
#87 = ORIENTED_EDGE('',*,*,#88,.T.);
#88 = EDGE_CURVE('',#81,#89,#91,.T.);
#89 = VERTEX_POINT('',#90);
#90 = CARTESIAN_POINT('',(-2.5,0.77,2.8));
#91 = LINE('',#92,#93);
#92 = CARTESIAN_POINT('',(-2.5,0.77,2.8));
#93 = VECTOR('',#94,1.);
#94 = DIRECTION('',(-1.,0.,0.));
#95 = ORIENTED_EDGE('',*,*,#96,.T.);
#96 = EDGE_CURVE('',#89,#97,#99,.T.);
#97 = VERTEX_POINT('',#98);
#98 = CARTESIAN_POINT('',(-2.5,-0.77,2.8));
#99 = LINE('',#100,#101);
#100 = CARTESIAN_POINT('',(-2.5,-1.27,2.8));
#101 = VECTOR('',#102,1.);
#102 = DIRECTION('',(0.,-1.,0.));
#103 = ORIENTED_EDGE('',*,*,#104,.T.);
#104 = EDGE_CURVE('',#97,#79,#105,.T.);
#105 = LINE('',#106,#107);
#106 = CARTESIAN_POINT('',(-2.5,-0.77,2.8));
#107 = VECTOR('',#108,1.);
#108 = DIRECTION('',(1.,0.,0.));
#109 = FACE_BOUND('',#110,.T.);
#110 = EDGE_LOOP('',(#111,#121,#129,#137));
#111 = ORIENTED_EDGE('',*,*,#112,.T.);
#112 = EDGE_CURVE('',#113,#115,#117,.T.);
#113 = VERTEX_POINT('',#114);
#114 = CARTESIAN_POINT('',(0.9525,0.3175,2.8));
#115 = VERTEX_POINT('',#116);
#116 = CARTESIAN_POINT('',(1.5875,0.3175,2.8));
#117 = LINE('',#118,#119);
#118 = CARTESIAN_POINT('',(0.9525,0.3175,2.8));
#119 = VECTOR('',#120,1.);
#120 = DIRECTION('',(1.,-3.41480999208E-16,0.));
#121 = ORIENTED_EDGE('',*,*,#122,.T.);
#122 = EDGE_CURVE('',#115,#123,#125,.T.);
#123 = VERTEX_POINT('',#124);
#124 = CARTESIAN_POINT('',(1.5875,-0.3175,2.8));
#125 = LINE('',#126,#127);
#126 = CARTESIAN_POINT('',(1.5875,-0.3175,2.8));
#127 = VECTOR('',#128,1.);
#128 = DIRECTION('',(0.,-1.,0.));
#129 = ORIENTED_EDGE('',*,*,#130,.T.);
#130 = EDGE_CURVE('',#123,#131,#133,.T.);
#131 = VERTEX_POINT('',#132);
#132 = CARTESIAN_POINT('',(0.9525,-0.3175,2.8));
#133 = LINE('',#134,#135);
#134 = CARTESIAN_POINT('',(0.9525,-0.3175,2.8));
#135 = VECTOR('',#136,1.);
#136 = DIRECTION('',(-1.,-3.41480999208E-16,0.));
#137 = ORIENTED_EDGE('',*,*,#138,.T.);
#138 = EDGE_CURVE('',#131,#113,#139,.T.);
#139 = LINE('',#140,#141);
#140 = CARTESIAN_POINT('',(0.9525,-0.3175,2.8));
#141 = VECTOR('',#142,1.);
#142 = DIRECTION('',(0.,1.,0.));
#143 = PLANE('',#144);
#144 = AXIS2_PLACEMENT_3D('',#145,#146,#147);
#145 = CARTESIAN_POINT('',(-2.5,1.27,2.8));
#146 = DIRECTION('',(0.,0.,-1.));
#147 = DIRECTION('',(-1.,0.,0.));
#148 = ADVANCED_FACE('',(#149,#183,#217),#251,.T.);
#149 = FACE_BOUND('',#150,.T.);
#150 = EDGE_LOOP('',(#151,#161,#169,#177));
#151 = ORIENTED_EDGE('',*,*,#152,.T.);
#152 = EDGE_CURVE('',#153,#155,#157,.T.);
#153 = VERTEX_POINT('',#154);
#154 = CARTESIAN_POINT('',(-0.9525,-0.3175,0.));
#155 = VERTEX_POINT('',#156);
#156 = CARTESIAN_POINT('',(-0.9525,0.3175,0.));
#157 = LINE('',#158,#159);
#158 = CARTESIAN_POINT('',(-0.9525,-0.3175,0.));
#159 = VECTOR('',#160,1.);
#160 = DIRECTION('',(0.,1.,0.));
#161 = ORIENTED_EDGE('',*,*,#162,.T.);
#162 = EDGE_CURVE('',#155,#163,#165,.T.);
#163 = VERTEX_POINT('',#164);
#164 = CARTESIAN_POINT('',(-1.5875,0.3175,0.));
#165 = LINE('',#166,#167);
#166 = CARTESIAN_POINT('',(-1.5875,0.3175,0.));
#167 = VECTOR('',#168,1.);
#168 = DIRECTION('',(-1.,8.537024980201E-17,0.));
#169 = ORIENTED_EDGE('',*,*,#170,.T.);
#170 = EDGE_CURVE('',#163,#171,#173,.T.);
#171 = VERTEX_POINT('',#172);
#172 = CARTESIAN_POINT('',(-1.5875,-0.3175,0.));
#173 = LINE('',#174,#175);
#174 = CARTESIAN_POINT('',(-1.5875,-0.3175,0.));
#175 = VECTOR('',#176,1.);
#176 = DIRECTION('',(0.,-1.,0.));
#177 = ORIENTED_EDGE('',*,*,#178,.T.);
#178 = EDGE_CURVE('',#171,#153,#179,.T.);
#179 = LINE('',#180,#181);
#180 = CARTESIAN_POINT('',(-1.5875,-0.3175,0.));
#181 = VECTOR('',#182,1.);
#182 = DIRECTION('',(1.,8.537024980201E-17,0.));
#183 = FACE_BOUND('',#184,.T.);
#184 = EDGE_LOOP('',(#185,#195,#203,#211));
#185 = ORIENTED_EDGE('',*,*,#186,.F.);
#186 = EDGE_CURVE('',#187,#189,#191,.T.);
#187 = VERTEX_POINT('',#188);
#188 = CARTESIAN_POINT('',(-2.5,0.77,0.));
#189 = VERTEX_POINT('',#190);
#190 = CARTESIAN_POINT('',(-2.5,-0.77,0.));
#191 = LINE('',#192,#193);
#192 = CARTESIAN_POINT('',(-2.5,-1.27,0.));
#193 = VECTOR('',#194,1.);
#194 = DIRECTION('',(0.,-1.,0.));
#195 = ORIENTED_EDGE('',*,*,#196,.T.);
#196 = EDGE_CURVE('',#187,#197,#199,.T.);
#197 = VERTEX_POINT('',#198);
#198 = CARTESIAN_POINT('',(2.5,0.77,0.));
#199 = LINE('',#200,#201);
#200 = CARTESIAN_POINT('',(2.5,0.77,0.));
#201 = VECTOR('',#202,1.);
#202 = DIRECTION('',(1.,0.,0.));
#203 = ORIENTED_EDGE('',*,*,#204,.F.);
#204 = EDGE_CURVE('',#205,#197,#207,.T.);
#205 = VERTEX_POINT('',#206);
#206 = CARTESIAN_POINT('',(2.5,-0.77,0.));
#207 = LINE('',#208,#209);
#208 = CARTESIAN_POINT('',(2.5,-1.27,0.));
#209 = VECTOR('',#210,1.);
#210 = DIRECTION('',(0.,1.,0.));
#211 = ORIENTED_EDGE('',*,*,#212,.T.);
#212 = EDGE_CURVE('',#205,#189,#213,.T.);
#213 = LINE('',#214,#215);
#214 = CARTESIAN_POINT('',(-2.5,-0.77,0.));
#215 = VECTOR('',#216,1.);
#216 = DIRECTION('',(-1.,0.,0.));
#217 = FACE_BOUND('',#218,.T.);
#218 = EDGE_LOOP('',(#219,#229,#237,#245));
#219 = ORIENTED_EDGE('',*,*,#220,.T.);
#220 = EDGE_CURVE('',#221,#223,#225,.T.);
#221 = VERTEX_POINT('',#222);
#222 = CARTESIAN_POINT('',(1.5875,-0.3175,0.));
#223 = VERTEX_POINT('',#224);
#224 = CARTESIAN_POINT('',(1.5875,0.3175,0.));
#225 = LINE('',#226,#227);
#226 = CARTESIAN_POINT('',(1.5875,-0.3175,0.));
#227 = VECTOR('',#228,1.);
#228 = DIRECTION('',(0.,1.,0.));
#229 = ORIENTED_EDGE('',*,*,#230,.T.);
#230 = EDGE_CURVE('',#223,#231,#233,.T.);
#231 = VERTEX_POINT('',#232);
#232 = CARTESIAN_POINT('',(0.9525,0.3175,0.));
#233 = LINE('',#234,#235);
#234 = CARTESIAN_POINT('',(0.9525,0.3175,0.));
#235 = VECTOR('',#236,1.);
#236 = DIRECTION('',(-1.,3.41480999208E-16,0.));
#237 = ORIENTED_EDGE('',*,*,#238,.T.);
#238 = EDGE_CURVE('',#231,#239,#241,.T.);
#239 = VERTEX_POINT('',#240);
#240 = CARTESIAN_POINT('',(0.9525,-0.3175,0.));
#241 = LINE('',#242,#243);
#242 = CARTESIAN_POINT('',(0.9525,-0.3175,0.));
#243 = VECTOR('',#244,1.);
#244 = DIRECTION('',(0.,-1.,0.));
#245 = ORIENTED_EDGE('',*,*,#246,.T.);
#246 = EDGE_CURVE('',#239,#221,#247,.T.);
#247 = LINE('',#248,#249);
#248 = CARTESIAN_POINT('',(0.9525,-0.3175,0.));
#249 = VECTOR('',#250,1.);
#250 = DIRECTION('',(1.,3.41480999208E-16,0.));
#251 = PLANE('',#252);
#252 = AXIS2_PLACEMENT_3D('',#253,#254,#255);
#253 = CARTESIAN_POINT('',(-2.5,1.27,0.));
#254 = DIRECTION('',(0.,0.,-1.));
#255 = DIRECTION('',(-1.,0.,0.));
#256 = ADVANCED_FACE('',(#257),#273,.F.);
#257 = FACE_BOUND('',#258,.T.);
#258 = EDGE_LOOP('',(#259,#260,#266,#267));
#259 = ORIENTED_EDGE('',*,*,#96,.F.);
#260 = ORIENTED_EDGE('',*,*,#261,.T.);
#261 = EDGE_CURVE('',#89,#187,#262,.T.);
#262 = LINE('',#263,#264);
#263 = CARTESIAN_POINT('',(-2.5,0.77,2.8));
#264 = VECTOR('',#265,1.);
#265 = DIRECTION('',(0.,0.,-1.));
#266 = ORIENTED_EDGE('',*,*,#186,.T.);
#267 = ORIENTED_EDGE('',*,*,#268,.T.);
#268 = EDGE_CURVE('',#189,#97,#269,.T.);
#269 = LINE('',#270,#271);
#270 = CARTESIAN_POINT('',(-2.5,-0.77,2.8));
#271 = VECTOR('',#272,1.);
#272 = DIRECTION('',(0.,0.,1.));
#273 = PLANE('',#274);
#274 = AXIS2_PLACEMENT_3D('',#275,#276,#277);
#275 = CARTESIAN_POINT('',(-2.5,-1.27,2.8));
#276 = DIRECTION('',(1.,0.,0.));
#277 = DIRECTION('',(0.,0.,-1.));
#278 = ADVANCED_FACE('',(#279),#313,.F.);
#279 = FACE_BOUND('',#280,.T.);
#280 = EDGE_LOOP('',(#281,#291,#299,#307));
#281 = ORIENTED_EDGE('',*,*,#282,.T.);
#282 = EDGE_CURVE('',#283,#285,#287,.T.);
#283 = VERTEX_POINT('',#284);
#284 = CARTESIAN_POINT('',(2.,-1.27,0.5));
#285 = VERTEX_POINT('',#286);
#286 = CARTESIAN_POINT('',(2.,-1.27,2.3));
#287 = LINE('',#288,#289);
#288 = CARTESIAN_POINT('',(2.,-1.27,2.8));
#289 = VECTOR('',#290,1.);
#290 = DIRECTION('',(0.,0.,1.));
#291 = ORIENTED_EDGE('',*,*,#292,.T.);
#292 = EDGE_CURVE('',#285,#293,#295,.T.);
#293 = VERTEX_POINT('',#294);
#294 = CARTESIAN_POINT('',(-2.,-1.27,2.3));
#295 = LINE('',#296,#297);
#296 = CARTESIAN_POINT('',(-2.5,-1.27,2.3));
#297 = VECTOR('',#298,1.);
#298 = DIRECTION('',(-1.,0.,0.));
#299 = ORIENTED_EDGE('',*,*,#300,.T.);
#300 = EDGE_CURVE('',#293,#301,#303,.T.);
#301 = VERTEX_POINT('',#302);
#302 = CARTESIAN_POINT('',(-2.,-1.27,0.5));
#303 = LINE('',#304,#305);
#304 = CARTESIAN_POINT('',(-2.,-1.27,2.8));
#305 = VECTOR('',#306,1.);
#306 = DIRECTION('',(0.,0.,-1.));
#307 = ORIENTED_EDGE('',*,*,#308,.T.);
#308 = EDGE_CURVE('',#301,#283,#309,.T.);
#309 = LINE('',#310,#311);
#310 = CARTESIAN_POINT('',(2.5,-1.27,0.5));
#311 = VECTOR('',#312,1.);
#312 = DIRECTION('',(1.,0.,0.));
#313 = PLANE('',#314);
#314 = AXIS2_PLACEMENT_3D('',#315,#316,#317);
#315 = CARTESIAN_POINT('',(-2.5,-1.27,2.8));
#316 = DIRECTION('',(0.,1.,0.));
#317 = DIRECTION('',(0.,-0.,1.));
#318 = ADVANCED_FACE('',(#319),#335,.F.);
#319 = FACE_BOUND('',#320,.T.);
#320 = EDGE_LOOP('',(#321,#322,#328,#329));
#321 = ORIENTED_EDGE('',*,*,#204,.T.);
#322 = ORIENTED_EDGE('',*,*,#323,.T.);
#323 = EDGE_CURVE('',#197,#81,#324,.T.);
#324 = LINE('',#325,#326);
#325 = CARTESIAN_POINT('',(2.5,0.77,2.8));
#326 = VECTOR('',#327,1.);
#327 = DIRECTION('',(0.,0.,1.));
#328 = ORIENTED_EDGE('',*,*,#78,.F.);
#329 = ORIENTED_EDGE('',*,*,#330,.T.);
#330 = EDGE_CURVE('',#79,#205,#331,.T.);
#331 = LINE('',#332,#333);
#332 = CARTESIAN_POINT('',(2.5,-0.77,2.8));
#333 = VECTOR('',#334,1.);
#334 = DIRECTION('',(0.,0.,-1.));
#335 = PLANE('',#336);
#336 = AXIS2_PLACEMENT_3D('',#337,#338,#339);
#337 = CARTESIAN_POINT('',(2.5,-1.27,2.8));
#338 = DIRECTION('',(-1.,0.,0.));
#339 = DIRECTION('',(0.,0.,1.));
#340 = ADVANCED_FACE('',(#341),#375,.F.);
#341 = FACE_BOUND('',#342,.T.);
#342 = EDGE_LOOP('',(#343,#353,#361,#369));
#343 = ORIENTED_EDGE('',*,*,#344,.T.);
#344 = EDGE_CURVE('',#345,#347,#349,.T.);
#345 = VERTEX_POINT('',#346);
#346 = CARTESIAN_POINT('',(2.,1.27,0.5));
#347 = VERTEX_POINT('',#348);
#348 = CARTESIAN_POINT('',(-2.,1.27,0.5));
#349 = LINE('',#350,#351);
#350 = CARTESIAN_POINT('',(-2.5,1.27,0.5));
#351 = VECTOR('',#352,1.);
#352 = DIRECTION('',(-1.,0.,0.));
#353 = ORIENTED_EDGE('',*,*,#354,.T.);
#354 = EDGE_CURVE('',#347,#355,#357,.T.);
#355 = VERTEX_POINT('',#356);
#356 = CARTESIAN_POINT('',(-2.,1.27,2.3));
#357 = LINE('',#358,#359);
#358 = CARTESIAN_POINT('',(-2.,1.27,2.8));
#359 = VECTOR('',#360,1.);
#360 = DIRECTION('',(0.,0.,1.));
#361 = ORIENTED_EDGE('',*,*,#362,.T.);
#362 = EDGE_CURVE('',#355,#363,#365,.T.);
#363 = VERTEX_POINT('',#364);
#364 = CARTESIAN_POINT('',(2.,1.27,2.3));
#365 = LINE('',#366,#367);
#366 = CARTESIAN_POINT('',(-2.5,1.27,2.3));
#367 = VECTOR('',#368,1.);
#368 = DIRECTION('',(1.,0.,0.));
#369 = ORIENTED_EDGE('',*,*,#370,.T.);
#370 = EDGE_CURVE('',#363,#345,#371,.T.);
#371 = LINE('',#372,#373);
#372 = CARTESIAN_POINT('',(2.,1.27,2.8));
#373 = VECTOR('',#374,1.);
#374 = DIRECTION('',(0.,0.,-1.));
#375 = PLANE('',#376);
#376 = AXIS2_PLACEMENT_3D('',#377,#378,#379);
#377 = CARTESIAN_POINT('',(-2.5,1.27,2.8));
#378 = DIRECTION('',(0.,-1.,0.));
#379 = DIRECTION('',(0.,0.,-1.));
#380 = ADVANCED_FACE('',(#381),#397,.T.);
#381 = FACE_BOUND('',#382,.T.);
#382 = EDGE_LOOP('',(#383,#389,#390,#396));
#383 = ORIENTED_EDGE('',*,*,#384,.T.);
#384 = EDGE_CURVE('',#45,#163,#385,.T.);
#385 = LINE('',#386,#387);
#386 = CARTESIAN_POINT('',(-1.5875,0.3175,3.698025612107));
#387 = VECTOR('',#388,1.);
#388 = DIRECTION('',(0.,0.,-1.));
#389 = ORIENTED_EDGE('',*,*,#162,.F.);
#390 = ORIENTED_EDGE('',*,*,#391,.F.);
#391 = EDGE_CURVE('',#47,#155,#392,.T.);
#392 = LINE('',#393,#394);
#393 = CARTESIAN_POINT('',(-0.9525,0.3175,3.698025612107));
#394 = VECTOR('',#395,1.);
#395 = DIRECTION('',(0.,0.,-1.));
#396 = ORIENTED_EDGE('',*,*,#44,.F.);
#397 = PLANE('',#398);
#398 = AXIS2_PLACEMENT_3D('',#399,#400,#401);
#399 = CARTESIAN_POINT('',(-1.5875,0.3175,3.698025612107));
#400 = DIRECTION('',(-8.537024980201E-17,-1.,0.));
#401 = DIRECTION('',(1.,-8.537024980201E-17,0.));
#402 = ADVANCED_FACE('',(#403),#414,.T.);
#403 = FACE_BOUND('',#404,.T.);
#404 = EDGE_LOOP('',(#405,#406,#407,#413));
#405 = ORIENTED_EDGE('',*,*,#391,.T.);
#406 = ORIENTED_EDGE('',*,*,#152,.F.);
#407 = ORIENTED_EDGE('',*,*,#408,.F.);
#408 = EDGE_CURVE('',#55,#153,#409,.T.);
#409 = LINE('',#410,#411);
#410 = CARTESIAN_POINT('',(-0.9525,-0.3175,3.698025612107));
#411 = VECTOR('',#412,1.);
#412 = DIRECTION('',(0.,0.,-1.));
#413 = ORIENTED_EDGE('',*,*,#54,.F.);
#414 = PLANE('',#415);
#415 = AXIS2_PLACEMENT_3D('',#416,#417,#418);
#416 = CARTESIAN_POINT('',(-0.9525,-0.3175,3.698025612107));
#417 = DIRECTION('',(-1.,0.,0.));
#418 = DIRECTION('',(0.,0.,1.));
#419 = ADVANCED_FACE('',(#420),#431,.T.);
#420 = FACE_BOUND('',#421,.T.);
#421 = EDGE_LOOP('',(#422,#423,#424,#430));
#422 = ORIENTED_EDGE('',*,*,#408,.T.);
#423 = ORIENTED_EDGE('',*,*,#178,.F.);
#424 = ORIENTED_EDGE('',*,*,#425,.F.);
#425 = EDGE_CURVE('',#63,#171,#426,.T.);
#426 = LINE('',#427,#428);
#427 = CARTESIAN_POINT('',(-1.5875,-0.3175,3.698025612107));
#428 = VECTOR('',#429,1.);
#429 = DIRECTION('',(0.,0.,-1.));
#430 = ORIENTED_EDGE('',*,*,#62,.F.);
#431 = PLANE('',#432);
#432 = AXIS2_PLACEMENT_3D('',#433,#434,#435);
#433 = CARTESIAN_POINT('',(-1.5875,-0.3175,3.698025612107));
#434 = DIRECTION('',(-8.537024980201E-17,1.,0.));
#435 = DIRECTION('',(-1.,-8.537024980201E-17,0.));
#436 = ADVANCED_FACE('',(#437),#443,.T.);
#437 = FACE_BOUND('',#438,.T.);
#438 = EDGE_LOOP('',(#439,#440,#441,#442));
#439 = ORIENTED_EDGE('',*,*,#425,.T.);
#440 = ORIENTED_EDGE('',*,*,#170,.F.);
#441 = ORIENTED_EDGE('',*,*,#384,.F.);
#442 = ORIENTED_EDGE('',*,*,#70,.F.);
#443 = PLANE('',#444);
#444 = AXIS2_PLACEMENT_3D('',#445,#446,#447);
#445 = CARTESIAN_POINT('',(-1.5875,-0.3175,3.698025612107));
#446 = DIRECTION('',(1.,0.,0.));
#447 = DIRECTION('',(0.,0.,-1.));
#448 = ADVANCED_FACE('',(#449),#465,.T.);
#449 = FACE_BOUND('',#450,.T.);
#450 = EDGE_LOOP('',(#451,#457,#458,#464));
#451 = ORIENTED_EDGE('',*,*,#452,.T.);
#452 = EDGE_CURVE('',#113,#231,#453,.T.);
#453 = LINE('',#454,#455);
#454 = CARTESIAN_POINT('',(0.9525,0.3175,3.698025612107));
#455 = VECTOR('',#456,1.);
#456 = DIRECTION('',(0.,0.,-1.));
#457 = ORIENTED_EDGE('',*,*,#230,.F.);
#458 = ORIENTED_EDGE('',*,*,#459,.F.);
#459 = EDGE_CURVE('',#115,#223,#460,.T.);
#460 = LINE('',#461,#462);
#461 = CARTESIAN_POINT('',(1.5875,0.3175,3.698025612107));
#462 = VECTOR('',#463,1.);
#463 = DIRECTION('',(0.,0.,-1.));
#464 = ORIENTED_EDGE('',*,*,#112,.F.);
#465 = PLANE('',#466);
#466 = AXIS2_PLACEMENT_3D('',#467,#468,#469);
#467 = CARTESIAN_POINT('',(0.9525,0.3175,3.698025612107));
#468 = DIRECTION('',(-3.41480999208E-16,-1.,0.));
#469 = DIRECTION('',(1.,-3.41480999208E-16,0.));
#470 = ADVANCED_FACE('',(#471),#482,.T.);
#471 = FACE_BOUND('',#472,.T.);
#472 = EDGE_LOOP('',(#473,#474,#475,#481));
#473 = ORIENTED_EDGE('',*,*,#459,.T.);
#474 = ORIENTED_EDGE('',*,*,#220,.F.);
#475 = ORIENTED_EDGE('',*,*,#476,.F.);
#476 = EDGE_CURVE('',#123,#221,#477,.T.);
#477 = LINE('',#478,#479);
#478 = CARTESIAN_POINT('',(1.5875,-0.3175,3.698025612107));
#479 = VECTOR('',#480,1.);
#480 = DIRECTION('',(0.,0.,-1.));
#481 = ORIENTED_EDGE('',*,*,#122,.F.);
#482 = PLANE('',#483);
#483 = AXIS2_PLACEMENT_3D('',#484,#485,#486);
#484 = CARTESIAN_POINT('',(1.5875,-0.3175,3.698025612107));
#485 = DIRECTION('',(-1.,0.,0.));
#486 = DIRECTION('',(0.,0.,1.));
#487 = ADVANCED_FACE('',(#488),#499,.T.);
#488 = FACE_BOUND('',#489,.T.);
#489 = EDGE_LOOP('',(#490,#491,#492,#498));
#490 = ORIENTED_EDGE('',*,*,#476,.T.);
#491 = ORIENTED_EDGE('',*,*,#246,.F.);
#492 = ORIENTED_EDGE('',*,*,#493,.F.);
#493 = EDGE_CURVE('',#131,#239,#494,.T.);
#494 = LINE('',#495,#496);
#495 = CARTESIAN_POINT('',(0.9525,-0.3175,3.698025612107));
#496 = VECTOR('',#497,1.);
#497 = DIRECTION('',(0.,0.,-1.));
#498 = ORIENTED_EDGE('',*,*,#130,.F.);
#499 = PLANE('',#500);
#500 = AXIS2_PLACEMENT_3D('',#501,#502,#503);
#501 = CARTESIAN_POINT('',(0.9525,-0.3175,3.698025612107));
#502 = DIRECTION('',(-3.41480999208E-16,1.,0.));
#503 = DIRECTION('',(-1.,-3.41480999208E-16,0.));
#504 = ADVANCED_FACE('',(#505),#511,.T.);
#505 = FACE_BOUND('',#506,.T.);
#506 = EDGE_LOOP('',(#507,#508,#509,#510));
#507 = ORIENTED_EDGE('',*,*,#493,.T.);
#508 = ORIENTED_EDGE('',*,*,#238,.F.);
#509 = ORIENTED_EDGE('',*,*,#452,.F.);
#510 = ORIENTED_EDGE('',*,*,#138,.F.);
#511 = PLANE('',#512);
#512 = AXIS2_PLACEMENT_3D('',#513,#514,#515);
#513 = CARTESIAN_POINT('',(0.9525,-0.3175,3.698025612107));
#514 = DIRECTION('',(1.,0.,0.));
#515 = DIRECTION('',(0.,0.,-1.));
#516 = ADVANCED_FACE('',(#517),#533,.F.);
#517 = FACE_BOUND('',#518,.T.);
#518 = EDGE_LOOP('',(#519,#525,#526,#532));
#519 = ORIENTED_EDGE('',*,*,#520,.F.);
#520 = EDGE_CURVE('',#345,#197,#521,.T.);
#521 = LINE('',#522,#523);
#522 = CARTESIAN_POINT('',(1.233333333333,2.036666666667,1.266666666667)
  );
#523 = VECTOR('',#524,1.);
#524 = DIRECTION('',(0.57735026919,-0.57735026919,-0.57735026919));
#525 = ORIENTED_EDGE('',*,*,#370,.F.);
#526 = ORIENTED_EDGE('',*,*,#527,.F.);
#527 = EDGE_CURVE('',#81,#363,#528,.T.);
#528 = LINE('',#529,#530);
#529 = CARTESIAN_POINT('',(2.166666666667,1.103333333333,2.466666666667)
  );
#530 = VECTOR('',#531,1.);
#531 = DIRECTION('',(-0.57735026919,0.57735026919,-0.57735026919));
#532 = ORIENTED_EDGE('',*,*,#323,.F.);
#533 = PLANE('',#534);
#534 = AXIS2_PLACEMENT_3D('',#535,#536,#537);
#535 = CARTESIAN_POINT('',(2.,1.27,2.8));
#536 = DIRECTION('',(-0.707106781187,-0.707106781187,0.));
#537 = DIRECTION('',(0.707106781187,-0.707106781187,0.));
#538 = ADVANCED_FACE('',(#539),#550,.F.);
#539 = FACE_BOUND('',#540,.T.);
#540 = EDGE_LOOP('',(#541,#542,#543,#549));
#541 = ORIENTED_EDGE('',*,*,#527,.T.);
#542 = ORIENTED_EDGE('',*,*,#362,.F.);
#543 = ORIENTED_EDGE('',*,*,#544,.F.);
#544 = EDGE_CURVE('',#89,#355,#545,.T.);
#545 = LINE('',#546,#547);
#546 = CARTESIAN_POINT('',(-2.5,0.77,2.8));
#547 = VECTOR('',#548,1.);
#548 = DIRECTION('',(0.57735026919,0.57735026919,-0.57735026919));
#549 = ORIENTED_EDGE('',*,*,#88,.F.);
#550 = PLANE('',#551);
#551 = AXIS2_PLACEMENT_3D('',#552,#553,#554);
#552 = CARTESIAN_POINT('',(-2.5,0.77,2.8));
#553 = DIRECTION('',(0.,-0.707106781187,-0.707106781187));
#554 = DIRECTION('',(0.,0.707106781187,-0.707106781187));
#555 = ADVANCED_FACE('',(#556),#567,.T.);
#556 = FACE_BOUND('',#557,.T.);
#557 = EDGE_LOOP('',(#558,#559,#560,#566));
#558 = ORIENTED_EDGE('',*,*,#520,.T.);
#559 = ORIENTED_EDGE('',*,*,#196,.F.);
#560 = ORIENTED_EDGE('',*,*,#561,.F.);
#561 = EDGE_CURVE('',#347,#187,#562,.T.);
#562 = LINE('',#563,#564);
#563 = CARTESIAN_POINT('',(-2.166666666667,1.103333333333,0.333333333333
    ));
#564 = VECTOR('',#565,1.);
#565 = DIRECTION('',(-0.57735026919,-0.57735026919,-0.57735026919));
#566 = ORIENTED_EDGE('',*,*,#344,.F.);
#567 = PLANE('',#568);
#568 = AXIS2_PLACEMENT_3D('',#569,#570,#571);
#569 = CARTESIAN_POINT('',(-2.5,1.27,0.5));
#570 = DIRECTION('',(0.,0.707106781187,-0.707106781187));
#571 = DIRECTION('',(0.,0.707106781187,0.707106781187));
#572 = ADVANCED_FACE('',(#573),#579,.F.);
#573 = FACE_BOUND('',#574,.T.);
#574 = EDGE_LOOP('',(#575,#576,#577,#578));
#575 = ORIENTED_EDGE('',*,*,#544,.T.);
#576 = ORIENTED_EDGE('',*,*,#354,.F.);
#577 = ORIENTED_EDGE('',*,*,#561,.T.);
#578 = ORIENTED_EDGE('',*,*,#261,.F.);
#579 = PLANE('',#580);
#580 = AXIS2_PLACEMENT_3D('',#581,#582,#583);
#581 = CARTESIAN_POINT('',(-2.5,0.77,2.8));
#582 = DIRECTION('',(0.707106781187,-0.707106781187,0.));
#583 = DIRECTION('',(0.707106781187,0.707106781187,0.));
#584 = ADVANCED_FACE('',(#585),#601,.T.);
#585 = FACE_BOUND('',#586,.T.);
#586 = EDGE_LOOP('',(#587,#593,#594,#600));
#587 = ORIENTED_EDGE('',*,*,#588,.F.);
#588 = EDGE_CURVE('',#283,#205,#589,.T.);
#589 = LINE('',#590,#591);
#590 = CARTESIAN_POINT('',(1.566666666667,-1.703333333333,0.933333333333
    ));
#591 = VECTOR('',#592,1.);
#592 = DIRECTION('',(0.57735026919,0.57735026919,-0.57735026919));
#593 = ORIENTED_EDGE('',*,*,#308,.F.);
#594 = ORIENTED_EDGE('',*,*,#595,.F.);
#595 = EDGE_CURVE('',#189,#301,#596,.T.);
#596 = LINE('',#597,#598);
#597 = CARTESIAN_POINT('',(-2.166666666667,-1.103333333333,
    0.333333333333));
#598 = VECTOR('',#599,1.);
#599 = DIRECTION('',(0.57735026919,-0.57735026919,0.57735026919));
#600 = ORIENTED_EDGE('',*,*,#212,.F.);
#601 = PLANE('',#602);
#602 = AXIS2_PLACEMENT_3D('',#603,#604,#605);
#603 = CARTESIAN_POINT('',(-2.5,-1.27,0.5));
#604 = DIRECTION('',(0.,-0.707106781187,-0.707106781187));
#605 = DIRECTION('',(0.,0.707106781187,-0.707106781187));
#606 = ADVANCED_FACE('',(#607),#618,.F.);
#607 = FACE_BOUND('',#608,.T.);
#608 = EDGE_LOOP('',(#609,#610,#611,#617));
#609 = ORIENTED_EDGE('',*,*,#595,.T.);
#610 = ORIENTED_EDGE('',*,*,#300,.F.);
#611 = ORIENTED_EDGE('',*,*,#612,.F.);
#612 = EDGE_CURVE('',#97,#293,#613,.T.);
#613 = LINE('',#614,#615);
#614 = CARTESIAN_POINT('',(-2.166666666667,-1.103333333333,
    2.466666666667));
#615 = VECTOR('',#616,1.);
#616 = DIRECTION('',(0.57735026919,-0.57735026919,-0.57735026919));
#617 = ORIENTED_EDGE('',*,*,#268,.F.);
#618 = PLANE('',#619);
#619 = AXIS2_PLACEMENT_3D('',#620,#621,#622);
#620 = CARTESIAN_POINT('',(-2.,-1.27,2.8));
#621 = DIRECTION('',(0.707106781187,0.707106781187,0.));
#622 = DIRECTION('',(-0.707106781187,0.707106781187,0.));
#623 = ADVANCED_FACE('',(#624),#635,.F.);
#624 = FACE_BOUND('',#625,.T.);
#625 = EDGE_LOOP('',(#626,#627,#628,#634));
#626 = ORIENTED_EDGE('',*,*,#588,.T.);
#627 = ORIENTED_EDGE('',*,*,#330,.F.);
#628 = ORIENTED_EDGE('',*,*,#629,.F.);
#629 = EDGE_CURVE('',#285,#79,#630,.T.);
#630 = LINE('',#631,#632);
#631 = CARTESIAN_POINT('',(2.5,-0.77,2.8));
#632 = VECTOR('',#633,1.);
#633 = DIRECTION('',(0.57735026919,0.57735026919,0.57735026919));
#634 = ORIENTED_EDGE('',*,*,#282,.F.);
#635 = PLANE('',#636);
#636 = AXIS2_PLACEMENT_3D('',#637,#638,#639);
#637 = CARTESIAN_POINT('',(2.5,-0.77,2.8));
#638 = DIRECTION('',(-0.707106781187,0.707106781187,0.));
#639 = DIRECTION('',(-0.707106781187,-0.707106781187,0.));
#640 = ADVANCED_FACE('',(#641),#647,.F.);
#641 = FACE_BOUND('',#642,.T.);
#642 = EDGE_LOOP('',(#643,#644,#645,#646));
#643 = ORIENTED_EDGE('',*,*,#612,.T.);
#644 = ORIENTED_EDGE('',*,*,#292,.F.);
#645 = ORIENTED_EDGE('',*,*,#629,.T.);
#646 = ORIENTED_EDGE('',*,*,#104,.F.);
#647 = PLANE('',#648);
#648 = AXIS2_PLACEMENT_3D('',#649,#650,#651);
#649 = CARTESIAN_POINT('',(-2.5,-0.77,2.8));
#650 = DIRECTION('',(0.,0.707106781187,-0.707106781187));
#651 = DIRECTION('',(0.,0.707106781187,0.707106781187));
#652 = ( GEOMETRIC_REPRESENTATION_CONTEXT(3) 
GLOBAL_UNCERTAINTY_ASSIGNED_CONTEXT((#656)) GLOBAL_UNIT_ASSIGNED_CONTEXT
((#653,#654,#655)) REPRESENTATION_CONTEXT('Context #1',
  '3D Context with UNIT and UNCERTAINTY') );
#653 = ( LENGTH_UNIT() NAMED_UNIT(*) SI_UNIT(.MILLI.,.METRE.) );
#654 = ( NAMED_UNIT(*) PLANE_ANGLE_UNIT() SI_UNIT($,.RADIAN.) );
#655 = ( NAMED_UNIT(*) SI_UNIT($,.STERADIAN.) SOLID_ANGLE_UNIT() );
#656 = UNCERTAINTY_MEASURE_WITH_UNIT(LENGTH_MEASURE(1.E-07),#653,
  'distance_accuracy_value','confusion accuracy');
#657 = SHAPE_DEFINITION_REPRESENTATION(#658,#37);
#658 = PRODUCT_DEFINITION_SHAPE('','',#659);
#659 = PRODUCT_DEFINITION('design','',#660,#663);
#660 = PRODUCT_DEFINITION_FORMATION('','',#661);
#661 = PRODUCT('NAUO1','NAUO1','',(#662));
#662 = PRODUCT_CONTEXT('',#2,'mechanical');
#663 = PRODUCT_DEFINITION_CONTEXT('part definition',#2,'design');
#664 = CONTEXT_DEPENDENT_SHAPE_REPRESENTATION(#665,#667);
#665 = ( REPRESENTATION_RELATIONSHIP('','',#37,#10) 
REPRESENTATION_RELATIONSHIP_WITH_TRANSFORMATION(#666) 
SHAPE_REPRESENTATION_RELATIONSHIP() );
#666 = ITEM_DEFINED_TRANSFORMATION('','',#11,#15);
#667 = PRODUCT_DEFINITION_SHAPE('Placement','Placement of an item',#668
  );
#668 = NEXT_ASSEMBLY_USAGE_OCCURRENCE('1','NAUO1','',#5,#659,$);
#669 = PRODUCT_RELATED_PRODUCT_CATEGORY('part',$,(#661));
#670 = ADVANCED_BREP_SHAPE_REPRESENTATION('',(#11,#671),#1489);
#671 = MANIFOLD_SOLID_BREP('',#672);
#672 = CLOSED_SHELL('',(#673,#781,#812,#836,#860,#877,#908,#932,#956,
    #973,#1004,#1028,#1052,#1069,#1100,#1124,#1148,#1165,#1196,#1220,
    #1244,#1261,#1273,#1285,#1325,#1356,#1387,#1409,#1421,#1443,#1460,
    #1477));
#673 = ADVANCED_FACE('',(#674,#708,#742),#776,.T.);
#674 = FACE_BOUND('',#675,.T.);
#675 = EDGE_LOOP('',(#676,#686,#694,#702));
#676 = ORIENTED_EDGE('',*,*,#677,.T.);
#677 = EDGE_CURVE('',#678,#680,#682,.T.);
#678 = VERTEX_POINT('',#679);
#679 = CARTESIAN_POINT('',(-0.9525,-0.3175,0.));
#680 = VERTEX_POINT('',#681);
#681 = CARTESIAN_POINT('',(-0.9525,0.3175,0.));
#682 = LINE('',#683,#684);
#683 = CARTESIAN_POINT('',(-0.9525,-0.3175,0.));
#684 = VECTOR('',#685,1.);
#685 = DIRECTION('',(0.,1.,0.));
#686 = ORIENTED_EDGE('',*,*,#687,.T.);
#687 = EDGE_CURVE('',#680,#688,#690,.T.);
#688 = VERTEX_POINT('',#689);
#689 = CARTESIAN_POINT('',(-1.5875,0.3175,0.));
#690 = LINE('',#691,#692);
#691 = CARTESIAN_POINT('',(-1.5875,0.3175,0.));
#692 = VECTOR('',#693,1.);
#693 = DIRECTION('',(-1.,8.537024980201E-17,0.));
#694 = ORIENTED_EDGE('',*,*,#695,.T.);
#695 = EDGE_CURVE('',#688,#696,#698,.T.);
#696 = VERTEX_POINT('',#697);
#697 = CARTESIAN_POINT('',(-1.5875,-0.3175,0.));
#698 = LINE('',#699,#700);
#699 = CARTESIAN_POINT('',(-1.5875,-0.3175,0.));
#700 = VECTOR('',#701,1.);
#701 = DIRECTION('',(0.,-1.,0.));
#702 = ORIENTED_EDGE('',*,*,#703,.T.);
#703 = EDGE_CURVE('',#696,#678,#704,.T.);
#704 = LINE('',#705,#706);
#705 = CARTESIAN_POINT('',(-1.5875,-0.3175,0.));
#706 = VECTOR('',#707,1.);
#707 = DIRECTION('',(1.,8.537024980201E-17,0.));
#708 = FACE_BOUND('',#709,.T.);
#709 = EDGE_LOOP('',(#710,#720,#728,#736));
#710 = ORIENTED_EDGE('',*,*,#711,.F.);
#711 = EDGE_CURVE('',#712,#714,#716,.T.);
#712 = VERTEX_POINT('',#713);
#713 = CARTESIAN_POINT('',(-2.5,1.2,0.));
#714 = VERTEX_POINT('',#715);
#715 = CARTESIAN_POINT('',(-2.5,-1.2,0.));
#716 = LINE('',#717,#718);
#717 = CARTESIAN_POINT('',(-2.5,-1.2,0.));
#718 = VECTOR('',#719,1.);
#719 = DIRECTION('',(0.,-1.,0.));
#720 = ORIENTED_EDGE('',*,*,#721,.F.);
#721 = EDGE_CURVE('',#722,#712,#724,.T.);
#722 = VERTEX_POINT('',#723);
#723 = CARTESIAN_POINT('',(2.5,1.2,0.));
#724 = LINE('',#725,#726);
#725 = CARTESIAN_POINT('',(-2.5,1.2,0.));
#726 = VECTOR('',#727,1.);
#727 = DIRECTION('',(-1.,0.,0.));
#728 = ORIENTED_EDGE('',*,*,#729,.F.);
#729 = EDGE_CURVE('',#730,#722,#732,.T.);
#730 = VERTEX_POINT('',#731);
#731 = CARTESIAN_POINT('',(2.5,-1.2,0.));
#732 = LINE('',#733,#734);
#733 = CARTESIAN_POINT('',(2.5,-1.2,0.));
#734 = VECTOR('',#735,1.);
#735 = DIRECTION('',(0.,1.,0.));
#736 = ORIENTED_EDGE('',*,*,#737,.F.);
#737 = EDGE_CURVE('',#714,#730,#738,.T.);
#738 = LINE('',#739,#740);
#739 = CARTESIAN_POINT('',(-2.5,-1.2,0.));
#740 = VECTOR('',#741,1.);
#741 = DIRECTION('',(1.,0.,0.));
#742 = FACE_BOUND('',#743,.T.);
#743 = EDGE_LOOP('',(#744,#754,#762,#770));
#744 = ORIENTED_EDGE('',*,*,#745,.T.);
#745 = EDGE_CURVE('',#746,#748,#750,.T.);
#746 = VERTEX_POINT('',#747);
#747 = CARTESIAN_POINT('',(1.5875,-0.3175,0.));
#748 = VERTEX_POINT('',#749);
#749 = CARTESIAN_POINT('',(1.5875,0.3175,0.));
#750 = LINE('',#751,#752);
#751 = CARTESIAN_POINT('',(1.5875,-0.3175,0.));
#752 = VECTOR('',#753,1.);
#753 = DIRECTION('',(0.,1.,0.));
#754 = ORIENTED_EDGE('',*,*,#755,.T.);
#755 = EDGE_CURVE('',#748,#756,#758,.T.);
#756 = VERTEX_POINT('',#757);
#757 = CARTESIAN_POINT('',(0.9525,0.3175,0.));
#758 = LINE('',#759,#760);
#759 = CARTESIAN_POINT('',(0.9525,0.3175,0.));
#760 = VECTOR('',#761,1.);
#761 = DIRECTION('',(-1.,3.41480999208E-16,0.));
#762 = ORIENTED_EDGE('',*,*,#763,.T.);
#763 = EDGE_CURVE('',#756,#764,#766,.T.);
#764 = VERTEX_POINT('',#765);
#765 = CARTESIAN_POINT('',(0.9525,-0.3175,0.));
#766 = LINE('',#767,#768);
#767 = CARTESIAN_POINT('',(0.9525,-0.3175,0.));
#768 = VECTOR('',#769,1.);
#769 = DIRECTION('',(0.,-1.,0.));
#770 = ORIENTED_EDGE('',*,*,#771,.T.);
#771 = EDGE_CURVE('',#764,#746,#772,.T.);
#772 = LINE('',#773,#774);
#773 = CARTESIAN_POINT('',(0.9525,-0.3175,0.));
#774 = VECTOR('',#775,1.);
#775 = DIRECTION('',(1.,3.41480999208E-16,0.));
#776 = PLANE('',#777);
#777 = AXIS2_PLACEMENT_3D('',#778,#779,#780);
#778 = CARTESIAN_POINT('',(-2.5,1.2,0.));
#779 = DIRECTION('',(0.,0.,-1.));
#780 = DIRECTION('',(-1.,0.,0.));
#781 = ADVANCED_FACE('',(#782),#807,.F.);
#782 = FACE_BOUND('',#783,.T.);
#783 = EDGE_LOOP('',(#784,#792,#800,#806));
#784 = ORIENTED_EDGE('',*,*,#785,.F.);
#785 = EDGE_CURVE('',#786,#714,#788,.T.);
#786 = VERTEX_POINT('',#787);
#787 = CARTESIAN_POINT('',(-2.5,-1.2,4.5));
#788 = LINE('',#789,#790);
#789 = CARTESIAN_POINT('',(-2.5,-1.2,5.));
#790 = VECTOR('',#791,1.);
#791 = DIRECTION('',(0.,0.,-1.));
#792 = ORIENTED_EDGE('',*,*,#793,.T.);
#793 = EDGE_CURVE('',#786,#794,#796,.T.);
#794 = VERTEX_POINT('',#795);
#795 = CARTESIAN_POINT('',(-2.5,1.2,4.5));
#796 = LINE('',#797,#798);
#797 = CARTESIAN_POINT('',(-2.5,-1.2,4.5));
#798 = VECTOR('',#799,1.);
#799 = DIRECTION('',(0.,1.,0.));
#800 = ORIENTED_EDGE('',*,*,#801,.T.);
#801 = EDGE_CURVE('',#794,#712,#802,.T.);
#802 = LINE('',#803,#804);
#803 = CARTESIAN_POINT('',(-2.5,1.2,5.));
#804 = VECTOR('',#805,1.);
#805 = DIRECTION('',(0.,0.,-1.));
#806 = ORIENTED_EDGE('',*,*,#711,.T.);
#807 = PLANE('',#808);
#808 = AXIS2_PLACEMENT_3D('',#809,#810,#811);
#809 = CARTESIAN_POINT('',(-2.5,-1.2,5.));
#810 = DIRECTION('',(1.,0.,0.));
#811 = DIRECTION('',(0.,0.,-1.));
#812 = ADVANCED_FACE('',(#813),#831,.F.);
#813 = FACE_BOUND('',#814,.T.);
#814 = EDGE_LOOP('',(#815,#823,#829,#830));
#815 = ORIENTED_EDGE('',*,*,#816,.F.);
#816 = EDGE_CURVE('',#817,#730,#819,.T.);
#817 = VERTEX_POINT('',#818);
#818 = CARTESIAN_POINT('',(2.5,-1.2,4.5));
#819 = LINE('',#820,#821);
#820 = CARTESIAN_POINT('',(2.5,-1.2,5.));
#821 = VECTOR('',#822,1.);
#822 = DIRECTION('',(0.,0.,-1.));
#823 = ORIENTED_EDGE('',*,*,#824,.T.);
#824 = EDGE_CURVE('',#817,#786,#825,.T.);
#825 = LINE('',#826,#827);
#826 = CARTESIAN_POINT('',(-2.5,-1.2,4.5));
#827 = VECTOR('',#828,1.);
#828 = DIRECTION('',(-1.,0.,0.));
#829 = ORIENTED_EDGE('',*,*,#785,.T.);
#830 = ORIENTED_EDGE('',*,*,#737,.T.);
#831 = PLANE('',#832);
#832 = AXIS2_PLACEMENT_3D('',#833,#834,#835);
#833 = CARTESIAN_POINT('',(-2.5,-1.2,5.));
#834 = DIRECTION('',(0.,1.,0.));
#835 = DIRECTION('',(0.,-0.,1.));
#836 = ADVANCED_FACE('',(#837),#855,.F.);
#837 = FACE_BOUND('',#838,.T.);
#838 = EDGE_LOOP('',(#839,#847,#853,#854));
#839 = ORIENTED_EDGE('',*,*,#840,.F.);
#840 = EDGE_CURVE('',#841,#722,#843,.T.);
#841 = VERTEX_POINT('',#842);
#842 = CARTESIAN_POINT('',(2.5,1.2,4.5));
#843 = LINE('',#844,#845);
#844 = CARTESIAN_POINT('',(2.5,1.2,5.));
#845 = VECTOR('',#846,1.);
#846 = DIRECTION('',(0.,0.,-1.));
#847 = ORIENTED_EDGE('',*,*,#848,.T.);
#848 = EDGE_CURVE('',#841,#817,#849,.T.);
#849 = LINE('',#850,#851);
#850 = CARTESIAN_POINT('',(2.5,-1.2,4.5));
#851 = VECTOR('',#852,1.);
#852 = DIRECTION('',(0.,-1.,0.));
#853 = ORIENTED_EDGE('',*,*,#816,.T.);
#854 = ORIENTED_EDGE('',*,*,#729,.T.);
#855 = PLANE('',#856);
#856 = AXIS2_PLACEMENT_3D('',#857,#858,#859);
#857 = CARTESIAN_POINT('',(2.5,-1.2,5.));
#858 = DIRECTION('',(-1.,0.,0.));
#859 = DIRECTION('',(0.,0.,1.));
#860 = ADVANCED_FACE('',(#861),#872,.F.);
#861 = FACE_BOUND('',#862,.T.);
#862 = EDGE_LOOP('',(#863,#864,#870,#871));
#863 = ORIENTED_EDGE('',*,*,#801,.F.);
#864 = ORIENTED_EDGE('',*,*,#865,.T.);
#865 = EDGE_CURVE('',#794,#841,#866,.T.);
#866 = LINE('',#867,#868);
#867 = CARTESIAN_POINT('',(-2.5,1.2,4.5));
#868 = VECTOR('',#869,1.);
#869 = DIRECTION('',(1.,0.,0.));
#870 = ORIENTED_EDGE('',*,*,#840,.T.);
#871 = ORIENTED_EDGE('',*,*,#721,.T.);
#872 = PLANE('',#873);
#873 = AXIS2_PLACEMENT_3D('',#874,#875,#876);
#874 = CARTESIAN_POINT('',(-2.5,1.2,5.));
#875 = DIRECTION('',(0.,-1.,0.));
#876 = DIRECTION('',(0.,0.,-1.));
#877 = ADVANCED_FACE('',(#878),#903,.T.);
#878 = FACE_BOUND('',#879,.T.);
#879 = EDGE_LOOP('',(#880,#888,#889,#897));
#880 = ORIENTED_EDGE('',*,*,#881,.T.);
#881 = EDGE_CURVE('',#882,#688,#884,.T.);
#882 = VERTEX_POINT('',#883);
#883 = CARTESIAN_POINT('',(-1.5875,0.3175,5.));
#884 = LINE('',#885,#886);
#885 = CARTESIAN_POINT('',(-1.5875,0.3175,5.898025612107));
#886 = VECTOR('',#887,1.);
#887 = DIRECTION('',(0.,0.,-1.));
#888 = ORIENTED_EDGE('',*,*,#687,.F.);
#889 = ORIENTED_EDGE('',*,*,#890,.F.);
#890 = EDGE_CURVE('',#891,#680,#893,.T.);
#891 = VERTEX_POINT('',#892);
#892 = CARTESIAN_POINT('',(-0.9525,0.3175,5.));
#893 = LINE('',#894,#895);
#894 = CARTESIAN_POINT('',(-0.9525,0.3175,5.898025612107));
#895 = VECTOR('',#896,1.);
#896 = DIRECTION('',(0.,0.,-1.));
#897 = ORIENTED_EDGE('',*,*,#898,.F.);
#898 = EDGE_CURVE('',#882,#891,#899,.T.);
#899 = LINE('',#900,#901);
#900 = CARTESIAN_POINT('',(-1.5875,0.3175,5.));
#901 = VECTOR('',#902,1.);
#902 = DIRECTION('',(1.,-8.537024980201E-17,0.));
#903 = PLANE('',#904);
#904 = AXIS2_PLACEMENT_3D('',#905,#906,#907);
#905 = CARTESIAN_POINT('',(-1.5875,0.3175,5.898025612107));
#906 = DIRECTION('',(-8.537024980201E-17,-1.,0.));
#907 = DIRECTION('',(1.,-8.537024980201E-17,0.));
#908 = ADVANCED_FACE('',(#909),#927,.T.);
#909 = FACE_BOUND('',#910,.T.);
#910 = EDGE_LOOP('',(#911,#912,#913,#921));
#911 = ORIENTED_EDGE('',*,*,#890,.T.);
#912 = ORIENTED_EDGE('',*,*,#677,.F.);
#913 = ORIENTED_EDGE('',*,*,#914,.F.);
#914 = EDGE_CURVE('',#915,#678,#917,.T.);
#915 = VERTEX_POINT('',#916);
#916 = CARTESIAN_POINT('',(-0.9525,-0.3175,5.));
#917 = LINE('',#918,#919);
#918 = CARTESIAN_POINT('',(-0.9525,-0.3175,5.898025612107));
#919 = VECTOR('',#920,1.);
#920 = DIRECTION('',(0.,0.,-1.));
#921 = ORIENTED_EDGE('',*,*,#922,.F.);
#922 = EDGE_CURVE('',#891,#915,#923,.T.);
#923 = LINE('',#924,#925);
#924 = CARTESIAN_POINT('',(-0.9525,-0.3175,5.));
#925 = VECTOR('',#926,1.);
#926 = DIRECTION('',(0.,-1.,0.));
#927 = PLANE('',#928);
#928 = AXIS2_PLACEMENT_3D('',#929,#930,#931);
#929 = CARTESIAN_POINT('',(-0.9525,-0.3175,5.898025612107));
#930 = DIRECTION('',(-1.,0.,0.));
#931 = DIRECTION('',(0.,0.,1.));
#932 = ADVANCED_FACE('',(#933),#951,.T.);
#933 = FACE_BOUND('',#934,.T.);
#934 = EDGE_LOOP('',(#935,#936,#937,#945));
#935 = ORIENTED_EDGE('',*,*,#914,.T.);
#936 = ORIENTED_EDGE('',*,*,#703,.F.);
#937 = ORIENTED_EDGE('',*,*,#938,.F.);
#938 = EDGE_CURVE('',#939,#696,#941,.T.);
#939 = VERTEX_POINT('',#940);
#940 = CARTESIAN_POINT('',(-1.5875,-0.3175,5.));
#941 = LINE('',#942,#943);
#942 = CARTESIAN_POINT('',(-1.5875,-0.3175,5.898025612107));
#943 = VECTOR('',#944,1.);
#944 = DIRECTION('',(0.,0.,-1.));
#945 = ORIENTED_EDGE('',*,*,#946,.F.);
#946 = EDGE_CURVE('',#915,#939,#947,.T.);
#947 = LINE('',#948,#949);
#948 = CARTESIAN_POINT('',(-1.5875,-0.3175,5.));
#949 = VECTOR('',#950,1.);
#950 = DIRECTION('',(-1.,-8.537024980201E-17,0.));
#951 = PLANE('',#952);
#952 = AXIS2_PLACEMENT_3D('',#953,#954,#955);
#953 = CARTESIAN_POINT('',(-1.5875,-0.3175,5.898025612107));
#954 = DIRECTION('',(-8.537024980201E-17,1.,0.));
#955 = DIRECTION('',(-1.,-8.537024980201E-17,0.));
#956 = ADVANCED_FACE('',(#957),#968,.T.);
#957 = FACE_BOUND('',#958,.T.);
#958 = EDGE_LOOP('',(#959,#960,#961,#962));
#959 = ORIENTED_EDGE('',*,*,#938,.T.);
#960 = ORIENTED_EDGE('',*,*,#695,.F.);
#961 = ORIENTED_EDGE('',*,*,#881,.F.);
#962 = ORIENTED_EDGE('',*,*,#963,.F.);
#963 = EDGE_CURVE('',#939,#882,#964,.T.);
#964 = LINE('',#965,#966);
#965 = CARTESIAN_POINT('',(-1.5875,-0.3175,5.));
#966 = VECTOR('',#967,1.);
#967 = DIRECTION('',(0.,1.,0.));
#968 = PLANE('',#969);
#969 = AXIS2_PLACEMENT_3D('',#970,#971,#972);
#970 = CARTESIAN_POINT('',(-1.5875,-0.3175,5.898025612107));
#971 = DIRECTION('',(1.,0.,0.));
#972 = DIRECTION('',(0.,0.,-1.));
#973 = ADVANCED_FACE('',(#974),#999,.T.);
#974 = FACE_BOUND('',#975,.T.);
#975 = EDGE_LOOP('',(#976,#984,#985,#993));
#976 = ORIENTED_EDGE('',*,*,#977,.T.);
#977 = EDGE_CURVE('',#978,#756,#980,.T.);
#978 = VERTEX_POINT('',#979);
#979 = CARTESIAN_POINT('',(0.9525,0.3175,5.));
#980 = LINE('',#981,#982);
#981 = CARTESIAN_POINT('',(0.9525,0.3175,5.898025612107));
#982 = VECTOR('',#983,1.);
#983 = DIRECTION('',(0.,0.,-1.));
#984 = ORIENTED_EDGE('',*,*,#755,.F.);
#985 = ORIENTED_EDGE('',*,*,#986,.F.);
#986 = EDGE_CURVE('',#987,#748,#989,.T.);
#987 = VERTEX_POINT('',#988);
#988 = CARTESIAN_POINT('',(1.5875,0.3175,5.));
#989 = LINE('',#990,#991);
#990 = CARTESIAN_POINT('',(1.5875,0.3175,5.898025612107));
#991 = VECTOR('',#992,1.);
#992 = DIRECTION('',(0.,0.,-1.));
#993 = ORIENTED_EDGE('',*,*,#994,.F.);
#994 = EDGE_CURVE('',#978,#987,#995,.T.);
#995 = LINE('',#996,#997);
#996 = CARTESIAN_POINT('',(0.9525,0.3175,5.));
#997 = VECTOR('',#998,1.);
#998 = DIRECTION('',(1.,-3.41480999208E-16,0.));
#999 = PLANE('',#1000);
#1000 = AXIS2_PLACEMENT_3D('',#1001,#1002,#1003);
#1001 = CARTESIAN_POINT('',(0.9525,0.3175,5.898025612107));
#1002 = DIRECTION('',(-3.41480999208E-16,-1.,0.));
#1003 = DIRECTION('',(1.,-3.41480999208E-16,0.));
#1004 = ADVANCED_FACE('',(#1005),#1023,.T.);
#1005 = FACE_BOUND('',#1006,.T.);
#1006 = EDGE_LOOP('',(#1007,#1008,#1009,#1017));
#1007 = ORIENTED_EDGE('',*,*,#986,.T.);
#1008 = ORIENTED_EDGE('',*,*,#745,.F.);
#1009 = ORIENTED_EDGE('',*,*,#1010,.F.);
#1010 = EDGE_CURVE('',#1011,#746,#1013,.T.);
#1011 = VERTEX_POINT('',#1012);
#1012 = CARTESIAN_POINT('',(1.5875,-0.3175,5.));
#1013 = LINE('',#1014,#1015);
#1014 = CARTESIAN_POINT('',(1.5875,-0.3175,5.898025612107));
#1015 = VECTOR('',#1016,1.);
#1016 = DIRECTION('',(0.,0.,-1.));
#1017 = ORIENTED_EDGE('',*,*,#1018,.F.);
#1018 = EDGE_CURVE('',#987,#1011,#1019,.T.);
#1019 = LINE('',#1020,#1021);
#1020 = CARTESIAN_POINT('',(1.5875,-0.3175,5.));
#1021 = VECTOR('',#1022,1.);
#1022 = DIRECTION('',(0.,-1.,0.));
#1023 = PLANE('',#1024);
#1024 = AXIS2_PLACEMENT_3D('',#1025,#1026,#1027);
#1025 = CARTESIAN_POINT('',(1.5875,-0.3175,5.898025612107));
#1026 = DIRECTION('',(-1.,0.,0.));
#1027 = DIRECTION('',(0.,0.,1.));
#1028 = ADVANCED_FACE('',(#1029),#1047,.T.);
#1029 = FACE_BOUND('',#1030,.T.);
#1030 = EDGE_LOOP('',(#1031,#1032,#1033,#1041));
#1031 = ORIENTED_EDGE('',*,*,#1010,.T.);
#1032 = ORIENTED_EDGE('',*,*,#771,.F.);
#1033 = ORIENTED_EDGE('',*,*,#1034,.F.);
#1034 = EDGE_CURVE('',#1035,#764,#1037,.T.);
#1035 = VERTEX_POINT('',#1036);
#1036 = CARTESIAN_POINT('',(0.9525,-0.3175,5.));
#1037 = LINE('',#1038,#1039);
#1038 = CARTESIAN_POINT('',(0.9525,-0.3175,5.898025612107));
#1039 = VECTOR('',#1040,1.);
#1040 = DIRECTION('',(0.,0.,-1.));
#1041 = ORIENTED_EDGE('',*,*,#1042,.F.);
#1042 = EDGE_CURVE('',#1011,#1035,#1043,.T.);
#1043 = LINE('',#1044,#1045);
#1044 = CARTESIAN_POINT('',(0.9525,-0.3175,5.));
#1045 = VECTOR('',#1046,1.);
#1046 = DIRECTION('',(-1.,-3.41480999208E-16,0.));
#1047 = PLANE('',#1048);
#1048 = AXIS2_PLACEMENT_3D('',#1049,#1050,#1051);
#1049 = CARTESIAN_POINT('',(0.9525,-0.3175,5.898025612107));
#1050 = DIRECTION('',(-3.41480999208E-16,1.,0.));
#1051 = DIRECTION('',(-1.,-3.41480999208E-16,0.));
#1052 = ADVANCED_FACE('',(#1053),#1064,.T.);
#1053 = FACE_BOUND('',#1054,.T.);
#1054 = EDGE_LOOP('',(#1055,#1056,#1057,#1058));
#1055 = ORIENTED_EDGE('',*,*,#1034,.T.);
#1056 = ORIENTED_EDGE('',*,*,#763,.F.);
#1057 = ORIENTED_EDGE('',*,*,#977,.F.);
#1058 = ORIENTED_EDGE('',*,*,#1059,.F.);
#1059 = EDGE_CURVE('',#1035,#978,#1060,.T.);
#1060 = LINE('',#1061,#1062);
#1061 = CARTESIAN_POINT('',(0.9525,-0.3175,5.));
#1062 = VECTOR('',#1063,1.);
#1063 = DIRECTION('',(0.,1.,0.));
#1064 = PLANE('',#1065);
#1065 = AXIS2_PLACEMENT_3D('',#1066,#1067,#1068);
#1066 = CARTESIAN_POINT('',(0.9525,-0.3175,5.898025612107));
#1067 = DIRECTION('',(1.,0.,0.));
#1068 = DIRECTION('',(0.,0.,-1.));
#1069 = ADVANCED_FACE('',(#1070),#1095,.F.);
#1070 = FACE_BOUND('',#1071,.T.);
#1071 = EDGE_LOOP('',(#1072,#1080,#1081,#1089));
#1072 = ORIENTED_EDGE('',*,*,#1073,.F.);
#1073 = EDGE_CURVE('',#817,#1074,#1076,.T.);
#1074 = VERTEX_POINT('',#1075);
#1075 = CARTESIAN_POINT('',(2.,-0.7,5.));
#1076 = LINE('',#1077,#1078);
#1077 = CARTESIAN_POINT('',(1.366666666667,-6.666666666666E-02,
    5.633333333333));
#1078 = VECTOR('',#1079,1.);
#1079 = DIRECTION('',(-0.57735026919,0.57735026919,0.57735026919));
#1080 = ORIENTED_EDGE('',*,*,#848,.F.);
#1081 = ORIENTED_EDGE('',*,*,#1082,.F.);
#1082 = EDGE_CURVE('',#1083,#841,#1085,.T.);
#1083 = VERTEX_POINT('',#1084);
#1084 = CARTESIAN_POINT('',(2.,0.7,5.));
#1085 = LINE('',#1086,#1087);
#1086 = CARTESIAN_POINT('',(0.5,-0.8,6.5));
#1087 = VECTOR('',#1088,1.);
#1088 = DIRECTION('',(0.57735026919,0.57735026919,-0.57735026919));
#1089 = ORIENTED_EDGE('',*,*,#1090,.F.);
#1090 = EDGE_CURVE('',#1074,#1083,#1091,.T.);
#1091 = LINE('',#1092,#1093);
#1092 = CARTESIAN_POINT('',(2.,1.2,5.));
#1093 = VECTOR('',#1094,1.);
#1094 = DIRECTION('',(0.,1.,0.));
#1095 = PLANE('',#1096);
#1096 = AXIS2_PLACEMENT_3D('',#1097,#1098,#1099);
#1097 = CARTESIAN_POINT('',(2.,1.2,5.));
#1098 = DIRECTION('',(-0.707106781187,0.,-0.707106781187));
#1099 = DIRECTION('',(-0.707106781187,0.,0.707106781187));
#1100 = ADVANCED_FACE('',(#1101),#1119,.F.);
#1101 = FACE_BOUND('',#1102,.T.);
#1102 = EDGE_LOOP('',(#1103,#1104,#1105,#1113));
#1103 = ORIENTED_EDGE('',*,*,#1082,.T.);
#1104 = ORIENTED_EDGE('',*,*,#865,.F.);
#1105 = ORIENTED_EDGE('',*,*,#1106,.F.);
#1106 = EDGE_CURVE('',#1107,#794,#1109,.T.);
#1107 = VERTEX_POINT('',#1108);
#1108 = CARTESIAN_POINT('',(-2.,0.7,5.));
#1109 = LINE('',#1110,#1111);
#1110 = CARTESIAN_POINT('',(-2.166666666667,0.866666666667,
    4.833333333333));
#1111 = VECTOR('',#1112,1.);
#1112 = DIRECTION('',(-0.57735026919,0.57735026919,-0.57735026919));
#1113 = ORIENTED_EDGE('',*,*,#1114,.F.);
#1114 = EDGE_CURVE('',#1083,#1107,#1115,.T.);
#1115 = LINE('',#1116,#1117);
#1116 = CARTESIAN_POINT('',(-2.5,0.7,5.));
#1117 = VECTOR('',#1118,1.);
#1118 = DIRECTION('',(-1.,0.,0.));
#1119 = PLANE('',#1120);
#1120 = AXIS2_PLACEMENT_3D('',#1121,#1122,#1123);
#1121 = CARTESIAN_POINT('',(-2.5,0.7,5.));
#1122 = DIRECTION('',(0.,-0.707106781187,-0.707106781187));
#1123 = DIRECTION('',(0.,0.707106781187,-0.707106781187));
#1124 = ADVANCED_FACE('',(#1125),#1143,.F.);
#1125 = FACE_BOUND('',#1126,.T.);
#1126 = EDGE_LOOP('',(#1127,#1128,#1136,#1142));
#1127 = ORIENTED_EDGE('',*,*,#1073,.T.);
#1128 = ORIENTED_EDGE('',*,*,#1129,.F.);
#1129 = EDGE_CURVE('',#1130,#1074,#1132,.T.);
#1130 = VERTEX_POINT('',#1131);
#1131 = CARTESIAN_POINT('',(-2.,-0.7,5.));
#1132 = LINE('',#1133,#1134);
#1133 = CARTESIAN_POINT('',(-2.5,-0.7,5.));
#1134 = VECTOR('',#1135,1.);
#1135 = DIRECTION('',(1.,0.,0.));
#1136 = ORIENTED_EDGE('',*,*,#1137,.F.);
#1137 = EDGE_CURVE('',#786,#1130,#1138,.T.);
#1138 = LINE('',#1139,#1140);
#1139 = CARTESIAN_POINT('',(-2.166666666667,-0.866666666667,
    4.833333333333));
#1140 = VECTOR('',#1141,1.);
#1141 = DIRECTION('',(0.57735026919,0.57735026919,0.57735026919));
#1142 = ORIENTED_EDGE('',*,*,#824,.F.);
#1143 = PLANE('',#1144);
#1144 = AXIS2_PLACEMENT_3D('',#1145,#1146,#1147);
#1145 = CARTESIAN_POINT('',(-2.5,-0.7,5.));
#1146 = DIRECTION('',(0.,0.707106781187,-0.707106781187));
#1147 = DIRECTION('',(0.,0.707106781187,0.707106781187));
#1148 = ADVANCED_FACE('',(#1149),#1160,.F.);
#1149 = FACE_BOUND('',#1150,.T.);
#1150 = EDGE_LOOP('',(#1151,#1152,#1153,#1154));
#1151 = ORIENTED_EDGE('',*,*,#1106,.T.);
#1152 = ORIENTED_EDGE('',*,*,#793,.F.);
#1153 = ORIENTED_EDGE('',*,*,#1137,.T.);
#1154 = ORIENTED_EDGE('',*,*,#1155,.F.);
#1155 = EDGE_CURVE('',#1107,#1130,#1156,.T.);
#1156 = LINE('',#1157,#1158);
#1157 = CARTESIAN_POINT('',(-2.,1.2,5.));
#1158 = VECTOR('',#1159,1.);
#1159 = DIRECTION('',(0.,-1.,0.));
#1160 = PLANE('',#1161);
#1161 = AXIS2_PLACEMENT_3D('',#1162,#1163,#1164);
#1162 = CARTESIAN_POINT('',(-2.,1.2,5.));
#1163 = DIRECTION('',(0.707106781187,0.,-0.707106781187));
#1164 = DIRECTION('',(-0.707106781187,0.,-0.707106781187));
#1165 = ADVANCED_FACE('',(#1166),#1191,.F.);
#1166 = FACE_BOUND('',#1167,.T.);
#1167 = EDGE_LOOP('',(#1168,#1169,#1177,#1185));
#1168 = ORIENTED_EDGE('',*,*,#1114,.T.);
#1169 = ORIENTED_EDGE('',*,*,#1170,.F.);
#1170 = EDGE_CURVE('',#1171,#1107,#1173,.T.);
#1171 = VERTEX_POINT('',#1172);
#1172 = CARTESIAN_POINT('',(-2.,0.7,5.4));
#1173 = LINE('',#1174,#1175);
#1174 = CARTESIAN_POINT('',(-2.,0.7,5.4));
#1175 = VECTOR('',#1176,1.);
#1176 = DIRECTION('',(0.,0.,-1.));
#1177 = ORIENTED_EDGE('',*,*,#1178,.F.);
#1178 = EDGE_CURVE('',#1179,#1171,#1181,.T.);
#1179 = VERTEX_POINT('',#1180);
#1180 = CARTESIAN_POINT('',(2.,0.7,5.4));
#1181 = LINE('',#1182,#1183);
#1182 = CARTESIAN_POINT('',(2.,0.7,5.4));
#1183 = VECTOR('',#1184,1.);
#1184 = DIRECTION('',(-1.,0.,0.));
#1185 = ORIENTED_EDGE('',*,*,#1186,.T.);
#1186 = EDGE_CURVE('',#1179,#1083,#1187,.T.);
#1187 = LINE('',#1188,#1189);
#1188 = CARTESIAN_POINT('',(2.,0.7,5.4));
#1189 = VECTOR('',#1190,1.);
#1190 = DIRECTION('',(0.,0.,-1.));
#1191 = PLANE('',#1192);
#1192 = AXIS2_PLACEMENT_3D('',#1193,#1194,#1195);
#1193 = CARTESIAN_POINT('',(2.,0.7,5.4));
#1194 = DIRECTION('',(0.,-1.,0.));
#1195 = DIRECTION('',(0.,0.,-1.));
#1196 = ADVANCED_FACE('',(#1197),#1215,.F.);
#1197 = FACE_BOUND('',#1198,.T.);
#1198 = EDGE_LOOP('',(#1199,#1200,#1201,#1209));
#1199 = ORIENTED_EDGE('',*,*,#1090,.T.);
#1200 = ORIENTED_EDGE('',*,*,#1186,.F.);
#1201 = ORIENTED_EDGE('',*,*,#1202,.F.);
#1202 = EDGE_CURVE('',#1203,#1179,#1205,.T.);
#1203 = VERTEX_POINT('',#1204);
#1204 = CARTESIAN_POINT('',(2.,-0.7,5.4));
#1205 = LINE('',#1206,#1207);
#1206 = CARTESIAN_POINT('',(2.,-0.7,5.4));
#1207 = VECTOR('',#1208,1.);
#1208 = DIRECTION('',(0.,1.,0.));
#1209 = ORIENTED_EDGE('',*,*,#1210,.T.);
#1210 = EDGE_CURVE('',#1203,#1074,#1211,.T.);
#1211 = LINE('',#1212,#1213);
#1212 = CARTESIAN_POINT('',(2.,-0.7,5.4));
#1213 = VECTOR('',#1214,1.);
#1214 = DIRECTION('',(0.,0.,-1.));
#1215 = PLANE('',#1216);
#1216 = AXIS2_PLACEMENT_3D('',#1217,#1218,#1219);
#1217 = CARTESIAN_POINT('',(2.,-0.7,5.4));
#1218 = DIRECTION('',(-1.,0.,0.));
#1219 = DIRECTION('',(0.,0.,1.));
#1220 = ADVANCED_FACE('',(#1221),#1239,.F.);
#1221 = FACE_BOUND('',#1222,.T.);
#1222 = EDGE_LOOP('',(#1223,#1224,#1225,#1233));
#1223 = ORIENTED_EDGE('',*,*,#1129,.T.);
#1224 = ORIENTED_EDGE('',*,*,#1210,.F.);
#1225 = ORIENTED_EDGE('',*,*,#1226,.F.);
#1226 = EDGE_CURVE('',#1227,#1203,#1229,.T.);
#1227 = VERTEX_POINT('',#1228);
#1228 = CARTESIAN_POINT('',(-2.,-0.7,5.4));
#1229 = LINE('',#1230,#1231);
#1230 = CARTESIAN_POINT('',(-2.,-0.7,5.4));
#1231 = VECTOR('',#1232,1.);
#1232 = DIRECTION('',(1.,0.,0.));
#1233 = ORIENTED_EDGE('',*,*,#1234,.T.);
#1234 = EDGE_CURVE('',#1227,#1130,#1235,.T.);
#1235 = LINE('',#1236,#1237);
#1236 = CARTESIAN_POINT('',(-2.,-0.7,5.4));
#1237 = VECTOR('',#1238,1.);
#1238 = DIRECTION('',(0.,0.,-1.));
#1239 = PLANE('',#1240);
#1240 = AXIS2_PLACEMENT_3D('',#1241,#1242,#1243);
#1241 = CARTESIAN_POINT('',(-2.,-0.7,5.4));
#1242 = DIRECTION('',(0.,1.,0.));
#1243 = DIRECTION('',(0.,-0.,1.));
#1244 = ADVANCED_FACE('',(#1245),#1256,.F.);
#1245 = FACE_BOUND('',#1246,.T.);
#1246 = EDGE_LOOP('',(#1247,#1248,#1249,#1255));
#1247 = ORIENTED_EDGE('',*,*,#1155,.T.);
#1248 = ORIENTED_EDGE('',*,*,#1234,.F.);
#1249 = ORIENTED_EDGE('',*,*,#1250,.F.);
#1250 = EDGE_CURVE('',#1171,#1227,#1251,.T.);
#1251 = LINE('',#1252,#1253);
#1252 = CARTESIAN_POINT('',(-2.,0.7,5.4));
#1253 = VECTOR('',#1254,1.);
#1254 = DIRECTION('',(0.,-1.,0.));
#1255 = ORIENTED_EDGE('',*,*,#1170,.T.);
#1256 = PLANE('',#1257);
#1257 = AXIS2_PLACEMENT_3D('',#1258,#1259,#1260);
#1258 = CARTESIAN_POINT('',(-2.,0.7,5.4));
#1259 = DIRECTION('',(1.,0.,0.));
#1260 = DIRECTION('',(0.,0.,-1.));
#1261 = ADVANCED_FACE('',(#1262),#1268,.F.);
#1262 = FACE_BOUND('',#1263,.T.);
#1263 = EDGE_LOOP('',(#1264,#1265,#1266,#1267));
#1264 = ORIENTED_EDGE('',*,*,#994,.T.);
#1265 = ORIENTED_EDGE('',*,*,#1018,.T.);
#1266 = ORIENTED_EDGE('',*,*,#1042,.T.);
#1267 = ORIENTED_EDGE('',*,*,#1059,.T.);
#1268 = PLANE('',#1269);
#1269 = AXIS2_PLACEMENT_3D('',#1270,#1271,#1272);
#1270 = CARTESIAN_POINT('',(-2.,-0.7,5.));
#1271 = DIRECTION('',(0.,0.,1.));
#1272 = DIRECTION('',(1.,0.,-0.));
#1273 = ADVANCED_FACE('',(#1274),#1280,.F.);
#1274 = FACE_BOUND('',#1275,.T.);
#1275 = EDGE_LOOP('',(#1276,#1277,#1278,#1279));
#1276 = ORIENTED_EDGE('',*,*,#898,.T.);
#1277 = ORIENTED_EDGE('',*,*,#922,.T.);
#1278 = ORIENTED_EDGE('',*,*,#946,.T.);
#1279 = ORIENTED_EDGE('',*,*,#963,.T.);
#1280 = PLANE('',#1281);
#1281 = AXIS2_PLACEMENT_3D('',#1282,#1283,#1284);
#1282 = CARTESIAN_POINT('',(-2.,-0.7,5.));
#1283 = DIRECTION('',(0.,0.,1.));
#1284 = DIRECTION('',(1.,0.,-0.));
#1285 = ADVANCED_FACE('',(#1286),#1320,.F.);
#1286 = FACE_BOUND('',#1287,.T.);
#1287 = EDGE_LOOP('',(#1288,#1298,#1306,#1314));
#1288 = ORIENTED_EDGE('',*,*,#1289,.T.);
#1289 = EDGE_CURVE('',#1290,#1292,#1294,.T.);
#1290 = VERTEX_POINT('',#1291);
#1291 = CARTESIAN_POINT('',(-2.5,-1.2,6.4));
#1292 = VERTEX_POINT('',#1293);
#1293 = CARTESIAN_POINT('',(-2.5,-1.2,5.9));
#1294 = LINE('',#1295,#1296);
#1295 = CARTESIAN_POINT('',(-2.5,-1.2,6.4));
#1296 = VECTOR('',#1297,1.);
#1297 = DIRECTION('',(0.,0.,-1.));
#1298 = ORIENTED_EDGE('',*,*,#1299,.T.);
#1299 = EDGE_CURVE('',#1292,#1300,#1302,.T.);
#1300 = VERTEX_POINT('',#1301);
#1301 = CARTESIAN_POINT('',(2.5,-1.2,5.9));
#1302 = LINE('',#1303,#1304);
#1303 = CARTESIAN_POINT('',(2.5,-1.2,5.9));
#1304 = VECTOR('',#1305,1.);
#1305 = DIRECTION('',(1.,0.,0.));
#1306 = ORIENTED_EDGE('',*,*,#1307,.F.);
#1307 = EDGE_CURVE('',#1308,#1300,#1310,.T.);
#1308 = VERTEX_POINT('',#1309);
#1309 = CARTESIAN_POINT('',(2.5,-1.2,6.4));
#1310 = LINE('',#1311,#1312);
#1311 = CARTESIAN_POINT('',(2.5,-1.2,6.4));
#1312 = VECTOR('',#1313,1.);
#1313 = DIRECTION('',(0.,0.,-1.));
#1314 = ORIENTED_EDGE('',*,*,#1315,.F.);
#1315 = EDGE_CURVE('',#1290,#1308,#1316,.T.);
#1316 = LINE('',#1317,#1318);
#1317 = CARTESIAN_POINT('',(2.5,-1.2,6.4));
#1318 = VECTOR('',#1319,1.);
#1319 = DIRECTION('',(1.,0.,0.));
#1320 = PLANE('',#1321);
#1321 = AXIS2_PLACEMENT_3D('',#1322,#1323,#1324);
#1322 = CARTESIAN_POINT('',(2.5,-1.2,6.4));
#1323 = DIRECTION('',(0.,1.,0.));
#1324 = DIRECTION('',(0.,-0.,1.));
#1325 = ADVANCED_FACE('',(#1326),#1351,.F.);
#1326 = FACE_BOUND('',#1327,.T.);
#1327 = EDGE_LOOP('',(#1328,#1329,#1337,#1345));
#1328 = ORIENTED_EDGE('',*,*,#1307,.T.);
#1329 = ORIENTED_EDGE('',*,*,#1330,.T.);
#1330 = EDGE_CURVE('',#1300,#1331,#1333,.T.);
#1331 = VERTEX_POINT('',#1332);
#1332 = CARTESIAN_POINT('',(2.5,1.2,5.9));
#1333 = LINE('',#1334,#1335);
#1334 = CARTESIAN_POINT('',(2.5,1.2,5.9));
#1335 = VECTOR('',#1336,1.);
#1336 = DIRECTION('',(0.,1.,0.));
#1337 = ORIENTED_EDGE('',*,*,#1338,.F.);
#1338 = EDGE_CURVE('',#1339,#1331,#1341,.T.);
#1339 = VERTEX_POINT('',#1340);
#1340 = CARTESIAN_POINT('',(2.5,1.2,6.4));
#1341 = LINE('',#1342,#1343);
#1342 = CARTESIAN_POINT('',(2.5,1.2,6.4));
#1343 = VECTOR('',#1344,1.);
#1344 = DIRECTION('',(0.,0.,-1.));
#1345 = ORIENTED_EDGE('',*,*,#1346,.F.);
#1346 = EDGE_CURVE('',#1308,#1339,#1347,.T.);
#1347 = LINE('',#1348,#1349);
#1348 = CARTESIAN_POINT('',(2.5,1.2,6.4));
#1349 = VECTOR('',#1350,1.);
#1350 = DIRECTION('',(0.,1.,0.));
#1351 = PLANE('',#1352);
#1352 = AXIS2_PLACEMENT_3D('',#1353,#1354,#1355);
#1353 = CARTESIAN_POINT('',(2.5,1.2,6.4));
#1354 = DIRECTION('',(-1.,0.,0.));
#1355 = DIRECTION('',(0.,0.,1.));
#1356 = ADVANCED_FACE('',(#1357),#1382,.F.);
#1357 = FACE_BOUND('',#1358,.T.);
#1358 = EDGE_LOOP('',(#1359,#1360,#1368,#1376));
#1359 = ORIENTED_EDGE('',*,*,#1338,.T.);
#1360 = ORIENTED_EDGE('',*,*,#1361,.T.);
#1361 = EDGE_CURVE('',#1331,#1362,#1364,.T.);
#1362 = VERTEX_POINT('',#1363);
#1363 = CARTESIAN_POINT('',(-2.5,1.2,5.9));
#1364 = LINE('',#1365,#1366);
#1365 = CARTESIAN_POINT('',(-2.5,1.2,5.9));
#1366 = VECTOR('',#1367,1.);
#1367 = DIRECTION('',(-1.,0.,0.));
#1368 = ORIENTED_EDGE('',*,*,#1369,.F.);
#1369 = EDGE_CURVE('',#1370,#1362,#1372,.T.);
#1370 = VERTEX_POINT('',#1371);
#1371 = CARTESIAN_POINT('',(-2.5,1.2,6.4));
#1372 = LINE('',#1373,#1374);
#1373 = CARTESIAN_POINT('',(-2.5,1.2,6.4));
#1374 = VECTOR('',#1375,1.);
#1375 = DIRECTION('',(0.,0.,-1.));
#1376 = ORIENTED_EDGE('',*,*,#1377,.F.);
#1377 = EDGE_CURVE('',#1339,#1370,#1378,.T.);
#1378 = LINE('',#1379,#1380);
#1379 = CARTESIAN_POINT('',(-2.5,1.2,6.4));
#1380 = VECTOR('',#1381,1.);
#1381 = DIRECTION('',(-1.,0.,0.));
#1382 = PLANE('',#1383);
#1383 = AXIS2_PLACEMENT_3D('',#1384,#1385,#1386);
#1384 = CARTESIAN_POINT('',(-2.5,1.2,6.4));
#1385 = DIRECTION('',(0.,-1.,0.));
#1386 = DIRECTION('',(0.,0.,-1.));
#1387 = ADVANCED_FACE('',(#1388),#1404,.F.);
#1388 = FACE_BOUND('',#1389,.T.);
#1389 = EDGE_LOOP('',(#1390,#1391,#1397,#1398));
#1390 = ORIENTED_EDGE('',*,*,#1369,.T.);
#1391 = ORIENTED_EDGE('',*,*,#1392,.T.);
#1392 = EDGE_CURVE('',#1362,#1292,#1393,.T.);
#1393 = LINE('',#1394,#1395);
#1394 = CARTESIAN_POINT('',(-2.5,-1.2,5.9));
#1395 = VECTOR('',#1396,1.);
#1396 = DIRECTION('',(0.,-1.,0.));
#1397 = ORIENTED_EDGE('',*,*,#1289,.F.);
#1398 = ORIENTED_EDGE('',*,*,#1399,.F.);
#1399 = EDGE_CURVE('',#1370,#1290,#1400,.T.);
#1400 = LINE('',#1401,#1402);
#1401 = CARTESIAN_POINT('',(-2.5,-1.2,6.4));
#1402 = VECTOR('',#1403,1.);
#1403 = DIRECTION('',(0.,-1.,0.));
#1404 = PLANE('',#1405);
#1405 = AXIS2_PLACEMENT_3D('',#1406,#1407,#1408);
#1406 = CARTESIAN_POINT('',(-2.5,-1.2,6.4));
#1407 = DIRECTION('',(1.,0.,0.));
#1408 = DIRECTION('',(0.,0.,-1.));
#1409 = ADVANCED_FACE('',(#1410),#1416,.F.);
#1410 = FACE_BOUND('',#1411,.T.);
#1411 = EDGE_LOOP('',(#1412,#1413,#1414,#1415));
#1412 = ORIENTED_EDGE('',*,*,#1315,.T.);
#1413 = ORIENTED_EDGE('',*,*,#1346,.T.);
#1414 = ORIENTED_EDGE('',*,*,#1377,.T.);
#1415 = ORIENTED_EDGE('',*,*,#1399,.T.);
#1416 = PLANE('',#1417);
#1417 = AXIS2_PLACEMENT_3D('',#1418,#1419,#1420);
#1418 = CARTESIAN_POINT('',(-2.5,-1.2,6.4));
#1419 = DIRECTION('',(0.,0.,-1.));
#1420 = DIRECTION('',(-1.,0.,0.));
#1421 = ADVANCED_FACE('',(#1422),#1438,.T.);
#1422 = FACE_BOUND('',#1423,.T.);
#1423 = EDGE_LOOP('',(#1424,#1430,#1431,#1437));
#1424 = ORIENTED_EDGE('',*,*,#1425,.F.);
#1425 = EDGE_CURVE('',#1179,#1331,#1426,.T.);
#1426 = LINE('',#1427,#1428);
#1427 = CARTESIAN_POINT('',(2.5,1.2,5.9));
#1428 = VECTOR('',#1429,1.);
#1429 = DIRECTION('',(0.57735026919,0.57735026919,0.57735026919));
#1430 = ORIENTED_EDGE('',*,*,#1178,.T.);
#1431 = ORIENTED_EDGE('',*,*,#1432,.F.);
#1432 = EDGE_CURVE('',#1362,#1171,#1433,.T.);
#1433 = LINE('',#1434,#1435);
#1434 = CARTESIAN_POINT('',(-2.5,1.2,5.9));
#1435 = VECTOR('',#1436,1.);
#1436 = DIRECTION('',(0.57735026919,-0.57735026919,-0.57735026919));
#1437 = ORIENTED_EDGE('',*,*,#1361,.F.);
#1438 = PLANE('',#1439);
#1439 = AXIS2_PLACEMENT_3D('',#1440,#1441,#1442);
#1440 = CARTESIAN_POINT('',(-2.5,1.2,5.9));
#1441 = DIRECTION('',(0.,0.707106781187,-0.707106781187));
#1442 = DIRECTION('',(0.,0.707106781187,0.707106781187));
#1443 = ADVANCED_FACE('',(#1444),#1455,.T.);
#1444 = FACE_BOUND('',#1445,.T.);
#1445 = EDGE_LOOP('',(#1446,#1447,#1448,#1454));
#1446 = ORIENTED_EDGE('',*,*,#1432,.T.);
#1447 = ORIENTED_EDGE('',*,*,#1250,.T.);
#1448 = ORIENTED_EDGE('',*,*,#1449,.F.);
#1449 = EDGE_CURVE('',#1292,#1227,#1450,.T.);
#1450 = LINE('',#1451,#1452);
#1451 = CARTESIAN_POINT('',(-2.5,-1.2,5.9));
#1452 = VECTOR('',#1453,1.);
#1453 = DIRECTION('',(0.57735026919,0.57735026919,-0.57735026919));
#1454 = ORIENTED_EDGE('',*,*,#1392,.F.);
#1455 = PLANE('',#1456);
#1456 = AXIS2_PLACEMENT_3D('',#1457,#1458,#1459);
#1457 = CARTESIAN_POINT('',(-2.5,-1.2,5.9));
#1458 = DIRECTION('',(-0.707106781187,0.,-0.707106781187));
#1459 = DIRECTION('',(-0.707106781187,0.,0.707106781187));
#1460 = ADVANCED_FACE('',(#1461),#1472,.T.);
#1461 = FACE_BOUND('',#1462,.T.);
#1462 = EDGE_LOOP('',(#1463,#1464,#1465,#1471));
#1463 = ORIENTED_EDGE('',*,*,#1425,.T.);
#1464 = ORIENTED_EDGE('',*,*,#1330,.F.);
#1465 = ORIENTED_EDGE('',*,*,#1466,.F.);
#1466 = EDGE_CURVE('',#1203,#1300,#1467,.T.);
#1467 = LINE('',#1468,#1469);
#1468 = CARTESIAN_POINT('',(1.7,-0.4,5.1));
#1469 = VECTOR('',#1470,1.);
#1470 = DIRECTION('',(0.57735026919,-0.57735026919,0.57735026919));
#1471 = ORIENTED_EDGE('',*,*,#1202,.T.);
#1472 = PLANE('',#1473);
#1473 = AXIS2_PLACEMENT_3D('',#1474,#1475,#1476);
#1474 = CARTESIAN_POINT('',(2.5,1.2,5.9));
#1475 = DIRECTION('',(0.707106781187,0.,-0.707106781187));
#1476 = DIRECTION('',(-0.707106781187,0.,-0.707106781187));
#1477 = ADVANCED_FACE('',(#1478),#1484,.T.);
#1478 = FACE_BOUND('',#1479,.T.);
#1479 = EDGE_LOOP('',(#1480,#1481,#1482,#1483));
#1480 = ORIENTED_EDGE('',*,*,#1449,.T.);
#1481 = ORIENTED_EDGE('',*,*,#1226,.T.);
#1482 = ORIENTED_EDGE('',*,*,#1466,.T.);
#1483 = ORIENTED_EDGE('',*,*,#1299,.F.);
#1484 = PLANE('',#1485);
#1485 = AXIS2_PLACEMENT_3D('',#1486,#1487,#1488);
#1486 = CARTESIAN_POINT('',(2.5,-1.2,5.9));
#1487 = DIRECTION('',(0.,-0.707106781187,-0.707106781187));
#1488 = DIRECTION('',(0.,0.707106781187,-0.707106781187));
#1489 = ( GEOMETRIC_REPRESENTATION_CONTEXT(3) 
GLOBAL_UNCERTAINTY_ASSIGNED_CONTEXT((#1493)) 
GLOBAL_UNIT_ASSIGNED_CONTEXT((#1490,#1491,#1492)) REPRESENTATION_CONTEXT
('Context #1','3D Context with UNIT and UNCERTAINTY') );
#1490 = ( LENGTH_UNIT() NAMED_UNIT(*) SI_UNIT(.MILLI.,.METRE.) );
#1491 = ( NAMED_UNIT(*) PLANE_ANGLE_UNIT() SI_UNIT($,.RADIAN.) );
#1492 = ( NAMED_UNIT(*) SI_UNIT($,.STERADIAN.) SOLID_ANGLE_UNIT() );
#1493 = UNCERTAINTY_MEASURE_WITH_UNIT(LENGTH_MEASURE(1.E-07),#1490,
  'distance_accuracy_value','confusion accuracy');
#1494 = SHAPE_DEFINITION_REPRESENTATION(#1495,#670);
#1495 = PRODUCT_DEFINITION_SHAPE('','',#1496);
#1496 = PRODUCT_DEFINITION('design','',#1497,#1500);
#1497 = PRODUCT_DEFINITION_FORMATION('','',#1498);
#1498 = PRODUCT('NAUO2','NAUO2','',(#1499));
#1499 = PRODUCT_CONTEXT('',#2,'mechanical');
#1500 = PRODUCT_DEFINITION_CONTEXT('part definition',#2,'design');
#1501 = CONTEXT_DEPENDENT_SHAPE_REPRESENTATION(#1502,#1504);
#1502 = ( REPRESENTATION_RELATIONSHIP('','',#670,#10) 
REPRESENTATION_RELATIONSHIP_WITH_TRANSFORMATION(#1503) 
SHAPE_REPRESENTATION_RELATIONSHIP() );
#1503 = ITEM_DEFINED_TRANSFORMATION('','',#11,#19);
#1504 = PRODUCT_DEFINITION_SHAPE('Placement','Placement of an item',
  #1505);
#1505 = NEXT_ASSEMBLY_USAGE_OCCURRENCE('2','NAUO2','',#5,#1496,$);
#1506 = PRODUCT_RELATED_PRODUCT_CATEGORY('part',$,(#1498));
#1507 = ADVANCED_BREP_SHAPE_REPRESENTATION('',(#11,#1508),#1850);
#1508 = MANIFOLD_SOLID_BREP('',#1509);
#1509 = CLOSED_SHELL('',(#1510,#1550,#1581,#1612,#1634,#1674,#1714,#1736
    ,#1753,#1770,#1782,#1804,#1821,#1838));
#1510 = ADVANCED_FACE('',(#1511),#1545,.F.);
#1511 = FACE_BOUND('',#1512,.T.);
#1512 = EDGE_LOOP('',(#1513,#1523,#1531,#1539));
#1513 = ORIENTED_EDGE('',*,*,#1514,.T.);
#1514 = EDGE_CURVE('',#1515,#1517,#1519,.T.);
#1515 = VERTEX_POINT('',#1516);
#1516 = CARTESIAN_POINT('',(-0.3175,0.3175,2.2));
#1517 = VERTEX_POINT('',#1518);
#1518 = CARTESIAN_POINT('',(-0.3175,0.3175,-8.2));
#1519 = LINE('',#1520,#1521);
#1520 = CARTESIAN_POINT('',(-0.3175,0.3175,2.6));
#1521 = VECTOR('',#1522,1.);
#1522 = DIRECTION('',(0.,0.,-1.));
#1523 = ORIENTED_EDGE('',*,*,#1524,.T.);
#1524 = EDGE_CURVE('',#1517,#1525,#1527,.T.);
#1525 = VERTEX_POINT('',#1526);
#1526 = CARTESIAN_POINT('',(-0.3175,-0.3175,-8.2));
#1527 = LINE('',#1528,#1529);
#1528 = CARTESIAN_POINT('',(-0.3175,-0.3175,-8.2));
#1529 = VECTOR('',#1530,1.);
#1530 = DIRECTION('',(1.70740499604E-16,-1.,0.));
#1531 = ORIENTED_EDGE('',*,*,#1532,.F.);
#1532 = EDGE_CURVE('',#1533,#1525,#1535,.T.);
#1533 = VERTEX_POINT('',#1534);
#1534 = CARTESIAN_POINT('',(-0.3175,-0.3175,2.2));
#1535 = LINE('',#1536,#1537);
#1536 = CARTESIAN_POINT('',(-0.3175,-0.3175,2.6));
#1537 = VECTOR('',#1538,1.);
#1538 = DIRECTION('',(0.,0.,-1.));
#1539 = ORIENTED_EDGE('',*,*,#1540,.T.);
#1540 = EDGE_CURVE('',#1533,#1515,#1541,.T.);
#1541 = LINE('',#1542,#1543);
#1542 = CARTESIAN_POINT('',(-0.3175,-0.3175,2.2));
#1543 = VECTOR('',#1544,1.);
#1544 = DIRECTION('',(-1.70740499604E-16,1.,0.));
#1545 = PLANE('',#1546);
#1546 = AXIS2_PLACEMENT_3D('',#1547,#1548,#1549);
#1547 = CARTESIAN_POINT('',(-0.3175,-0.3175,2.6));
#1548 = DIRECTION('',(1.,1.70740499604E-16,0.));
#1549 = DIRECTION('',(-1.70740499604E-16,1.,0.));
#1550 = ADVANCED_FACE('',(#1551),#1576,.F.);
#1551 = FACE_BOUND('',#1552,.T.);
#1552 = EDGE_LOOP('',(#1553,#1554,#1562,#1570));
#1553 = ORIENTED_EDGE('',*,*,#1532,.T.);
#1554 = ORIENTED_EDGE('',*,*,#1555,.T.);
#1555 = EDGE_CURVE('',#1525,#1556,#1558,.T.);
#1556 = VERTEX_POINT('',#1557);
#1557 = CARTESIAN_POINT('',(0.3175,-0.3175,-8.2));
#1558 = LINE('',#1559,#1560);
#1559 = CARTESIAN_POINT('',(0.3175,-0.3175,-8.2));
#1560 = VECTOR('',#1561,1.);
#1561 = DIRECTION('',(1.,0.,0.));
#1562 = ORIENTED_EDGE('',*,*,#1563,.F.);
#1563 = EDGE_CURVE('',#1564,#1556,#1566,.T.);
#1564 = VERTEX_POINT('',#1565);
#1565 = CARTESIAN_POINT('',(0.3175,-0.3175,2.2));
#1566 = LINE('',#1567,#1568);
#1567 = CARTESIAN_POINT('',(0.3175,-0.3175,2.6));
#1568 = VECTOR('',#1569,1.);
#1569 = DIRECTION('',(0.,0.,-1.));
#1570 = ORIENTED_EDGE('',*,*,#1571,.T.);
#1571 = EDGE_CURVE('',#1564,#1533,#1572,.T.);
#1572 = LINE('',#1573,#1574);
#1573 = CARTESIAN_POINT('',(-0.3175,-0.3175,2.2));
#1574 = VECTOR('',#1575,1.);
#1575 = DIRECTION('',(-1.,0.,0.));
#1576 = PLANE('',#1577);
#1577 = AXIS2_PLACEMENT_3D('',#1578,#1579,#1580);
#1578 = CARTESIAN_POINT('',(-0.3175,-0.3175,2.6));
#1579 = DIRECTION('',(0.,1.,0.));
#1580 = DIRECTION('',(0.,-0.,1.));
#1581 = ADVANCED_FACE('',(#1582),#1607,.F.);
#1582 = FACE_BOUND('',#1583,.T.);
#1583 = EDGE_LOOP('',(#1584,#1585,#1593,#1601));
#1584 = ORIENTED_EDGE('',*,*,#1563,.T.);
#1585 = ORIENTED_EDGE('',*,*,#1586,.T.);
#1586 = EDGE_CURVE('',#1556,#1587,#1589,.T.);
#1587 = VERTEX_POINT('',#1588);
#1588 = CARTESIAN_POINT('',(0.3175,0.3175,-8.2));
#1589 = LINE('',#1590,#1591);
#1590 = CARTESIAN_POINT('',(0.3175,0.3175,-8.2));
#1591 = VECTOR('',#1592,1.);
#1592 = DIRECTION('',(1.70740499604E-16,1.,0.));
#1593 = ORIENTED_EDGE('',*,*,#1594,.F.);
#1594 = EDGE_CURVE('',#1595,#1587,#1597,.T.);
#1595 = VERTEX_POINT('',#1596);
#1596 = CARTESIAN_POINT('',(0.3175,0.3175,2.2));
#1597 = LINE('',#1598,#1599);
#1598 = CARTESIAN_POINT('',(0.3175,0.3175,2.6));
#1599 = VECTOR('',#1600,1.);
#1600 = DIRECTION('',(0.,0.,-1.));
#1601 = ORIENTED_EDGE('',*,*,#1602,.T.);
#1602 = EDGE_CURVE('',#1595,#1564,#1603,.T.);
#1603 = LINE('',#1604,#1605);
#1604 = CARTESIAN_POINT('',(0.3175,-0.3175,2.2));
#1605 = VECTOR('',#1606,1.);
#1606 = DIRECTION('',(-1.70740499604E-16,-1.,0.));
#1607 = PLANE('',#1608);
#1608 = AXIS2_PLACEMENT_3D('',#1609,#1610,#1611);
#1609 = CARTESIAN_POINT('',(0.3175,-0.3175,2.6));
#1610 = DIRECTION('',(-1.,1.70740499604E-16,0.));
#1611 = DIRECTION('',(-1.70740499604E-16,-1.,0.));
#1612 = ADVANCED_FACE('',(#1613),#1629,.F.);
#1613 = FACE_BOUND('',#1614,.T.);
#1614 = EDGE_LOOP('',(#1615,#1616,#1622,#1623));
#1615 = ORIENTED_EDGE('',*,*,#1594,.T.);
#1616 = ORIENTED_EDGE('',*,*,#1617,.T.);
#1617 = EDGE_CURVE('',#1587,#1517,#1618,.T.);
#1618 = LINE('',#1619,#1620);
#1619 = CARTESIAN_POINT('',(-0.3175,0.3175,-8.2));
#1620 = VECTOR('',#1621,1.);
#1621 = DIRECTION('',(-1.,0.,0.));
#1622 = ORIENTED_EDGE('',*,*,#1514,.F.);
#1623 = ORIENTED_EDGE('',*,*,#1624,.T.);
#1624 = EDGE_CURVE('',#1515,#1595,#1625,.T.);
#1625 = LINE('',#1626,#1627);
#1626 = CARTESIAN_POINT('',(-0.3175,0.3175,2.2));
#1627 = VECTOR('',#1628,1.);
#1628 = DIRECTION('',(1.,0.,0.));
#1629 = PLANE('',#1630);
#1630 = AXIS2_PLACEMENT_3D('',#1631,#1632,#1633);
#1631 = CARTESIAN_POINT('',(-0.3175,0.3175,2.6));
#1632 = DIRECTION('',(0.,-1.,0.));
#1633 = DIRECTION('',(0.,0.,-1.));
#1634 = ADVANCED_FACE('',(#1635),#1669,.F.);
#1635 = FACE_BOUND('',#1636,.T.);
#1636 = EDGE_LOOP('',(#1637,#1647,#1655,#1663));
#1637 = ORIENTED_EDGE('',*,*,#1638,.T.);
#1638 = EDGE_CURVE('',#1639,#1641,#1643,.T.);
#1639 = VERTEX_POINT('',#1640);
#1640 = CARTESIAN_POINT('',(-0.171911906294,-0.171911906294,2.6));
#1641 = VERTEX_POINT('',#1642);
#1642 = CARTESIAN_POINT('',(0.171911906294,-0.171911906294,2.6));
#1643 = LINE('',#1644,#1645);
#1644 = CARTESIAN_POINT('',(-0.3175,-0.171911906294,2.6));
#1645 = VECTOR('',#1646,1.);
#1646 = DIRECTION('',(1.,0.,0.));
#1647 = ORIENTED_EDGE('',*,*,#1648,.T.);
#1648 = EDGE_CURVE('',#1641,#1649,#1651,.T.);
#1649 = VERTEX_POINT('',#1650);
#1650 = CARTESIAN_POINT('',(0.171911906294,0.171911906294,2.6));
#1651 = LINE('',#1652,#1653);
#1652 = CARTESIAN_POINT('',(0.171911906294,0.3175,2.6));
#1653 = VECTOR('',#1654,1.);
#1654 = DIRECTION('',(1.70740499604E-16,1.,0.));
#1655 = ORIENTED_EDGE('',*,*,#1656,.T.);
#1656 = EDGE_CURVE('',#1649,#1657,#1659,.T.);
#1657 = VERTEX_POINT('',#1658);
#1658 = CARTESIAN_POINT('',(-0.171911906294,0.171911906294,2.6));
#1659 = LINE('',#1660,#1661);
#1660 = CARTESIAN_POINT('',(-0.3175,0.171911906294,2.6));
#1661 = VECTOR('',#1662,1.);
#1662 = DIRECTION('',(-1.,0.,0.));
#1663 = ORIENTED_EDGE('',*,*,#1664,.T.);
#1664 = EDGE_CURVE('',#1657,#1639,#1665,.T.);
#1665 = LINE('',#1666,#1667);
#1666 = CARTESIAN_POINT('',(-0.171911906294,0.3175,2.6));
#1667 = VECTOR('',#1668,1.);
#1668 = DIRECTION('',(1.70740499604E-16,-1.,0.));
#1669 = PLANE('',#1670);
#1670 = AXIS2_PLACEMENT_3D('',#1671,#1672,#1673);
#1671 = CARTESIAN_POINT('',(-0.3175,0.3175,2.6));
#1672 = DIRECTION('',(0.,0.,-1.));
#1673 = DIRECTION('',(-1.,0.,0.));
#1674 = ADVANCED_FACE('',(#1675),#1709,.T.);
#1675 = FACE_BOUND('',#1676,.T.);
#1676 = EDGE_LOOP('',(#1677,#1687,#1695,#1703));
#1677 = ORIENTED_EDGE('',*,*,#1678,.T.);
#1678 = EDGE_CURVE('',#1679,#1681,#1683,.T.);
#1679 = VERTEX_POINT('',#1680);
#1680 = CARTESIAN_POINT('',(-0.171911906294,-0.171911906294,-8.6));
#1681 = VERTEX_POINT('',#1682);
#1682 = CARTESIAN_POINT('',(-0.171911906294,0.171911906294,-8.6));
#1683 = LINE('',#1684,#1685);
#1684 = CARTESIAN_POINT('',(-0.171911906294,0.3175,-8.6));
#1685 = VECTOR('',#1686,1.);
#1686 = DIRECTION('',(-1.70740499604E-16,1.,0.));
#1687 = ORIENTED_EDGE('',*,*,#1688,.T.);
#1688 = EDGE_CURVE('',#1681,#1689,#1691,.T.);
#1689 = VERTEX_POINT('',#1690);
#1690 = CARTESIAN_POINT('',(0.171911906294,0.171911906294,-8.6));
#1691 = LINE('',#1692,#1693);
#1692 = CARTESIAN_POINT('',(0.3175,0.171911906294,-8.6));
#1693 = VECTOR('',#1694,1.);
#1694 = DIRECTION('',(1.,0.,0.));
#1695 = ORIENTED_EDGE('',*,*,#1696,.T.);
#1696 = EDGE_CURVE('',#1689,#1697,#1699,.T.);
#1697 = VERTEX_POINT('',#1698);
#1698 = CARTESIAN_POINT('',(0.171911906294,-0.171911906294,-8.6));
#1699 = LINE('',#1700,#1701);
#1700 = CARTESIAN_POINT('',(0.171911906294,-0.3175,-8.6));
#1701 = VECTOR('',#1702,1.);
#1702 = DIRECTION('',(-1.70740499604E-16,-1.,0.));
#1703 = ORIENTED_EDGE('',*,*,#1704,.T.);
#1704 = EDGE_CURVE('',#1697,#1679,#1705,.T.);
#1705 = LINE('',#1706,#1707);
#1706 = CARTESIAN_POINT('',(-0.3175,-0.171911906294,-8.6));
#1707 = VECTOR('',#1708,1.);
#1708 = DIRECTION('',(-1.,0.,0.));
#1709 = PLANE('',#1710);
#1710 = AXIS2_PLACEMENT_3D('',#1711,#1712,#1713);
#1711 = CARTESIAN_POINT('',(-0.3175,0.3175,-8.6));
#1712 = DIRECTION('',(0.,0.,-1.));
#1713 = DIRECTION('',(-1.,0.,0.));
#1714 = ADVANCED_FACE('',(#1715),#1731,.F.);
#1715 = FACE_BOUND('',#1716,.T.);
#1716 = EDGE_LOOP('',(#1717,#1723,#1724,#1730));
#1717 = ORIENTED_EDGE('',*,*,#1718,.F.);
#1718 = EDGE_CURVE('',#1515,#1657,#1719,.T.);
#1719 = LINE('',#1720,#1721);
#1720 = CARTESIAN_POINT('',(-0.187158916662,0.187158916662,
    2.558109183299));
#1721 = VECTOR('',#1722,1.);
#1722 = DIRECTION('',(0.323615577118,-0.323615577118,0.889126490716));
#1723 = ORIENTED_EDGE('',*,*,#1540,.F.);
#1724 = ORIENTED_EDGE('',*,*,#1725,.F.);
#1725 = EDGE_CURVE('',#1639,#1533,#1726,.T.);
#1726 = LINE('',#1727,#1728);
#1727 = CARTESIAN_POINT('',(-0.120657245148,-0.120657245148,
    2.740821024138));
#1728 = VECTOR('',#1729,1.);
#1729 = DIRECTION('',(-0.323615577118,-0.323615577118,-0.889126490716));
#1730 = ORIENTED_EDGE('',*,*,#1664,.F.);
#1731 = PLANE('',#1732);
#1732 = AXIS2_PLACEMENT_3D('',#1733,#1734,#1735);
#1733 = CARTESIAN_POINT('',(-0.171911906294,0.3175,2.6));
#1734 = DIRECTION('',(0.939692620786,1.604435875472E-16,-0.342020143326)
  );
#1735 = DIRECTION('',(-0.342020143326,0.,-0.939692620786));
#1736 = ADVANCED_FACE('',(#1737),#1748,.F.);
#1737 = FACE_BOUND('',#1738,.T.);
#1738 = EDGE_LOOP('',(#1739,#1740,#1741,#1747));
#1739 = ORIENTED_EDGE('',*,*,#1725,.T.);
#1740 = ORIENTED_EDGE('',*,*,#1571,.F.);
#1741 = ORIENTED_EDGE('',*,*,#1742,.F.);
#1742 = EDGE_CURVE('',#1641,#1564,#1743,.T.);
#1743 = LINE('',#1744,#1745);
#1744 = CARTESIAN_POINT('',(0.120657245148,-0.120657245148,
    2.740821024138));
#1745 = VECTOR('',#1746,1.);
#1746 = DIRECTION('',(0.323615577118,-0.323615577118,-0.889126490716));
#1747 = ORIENTED_EDGE('',*,*,#1638,.F.);
#1748 = PLANE('',#1749);
#1749 = AXIS2_PLACEMENT_3D('',#1750,#1751,#1752);
#1750 = CARTESIAN_POINT('',(-0.3175,-0.171911906294,2.6));
#1751 = DIRECTION('',(0.,0.939692620786,-0.342020143326));
#1752 = DIRECTION('',(0.,0.342020143326,0.939692620786));
#1753 = ADVANCED_FACE('',(#1754),#1765,.F.);
#1754 = FACE_BOUND('',#1755,.T.);
#1755 = EDGE_LOOP('',(#1756,#1757,#1758,#1764));
#1756 = ORIENTED_EDGE('',*,*,#1718,.T.);
#1757 = ORIENTED_EDGE('',*,*,#1656,.F.);
#1758 = ORIENTED_EDGE('',*,*,#1759,.F.);
#1759 = EDGE_CURVE('',#1595,#1649,#1760,.T.);
#1760 = LINE('',#1761,#1762);
#1761 = CARTESIAN_POINT('',(0.120657245148,0.120657245148,2.740821024138
    ));
#1762 = VECTOR('',#1763,1.);
#1763 = DIRECTION('',(-0.323615577118,-0.323615577118,0.889126490716));
#1764 = ORIENTED_EDGE('',*,*,#1624,.F.);
#1765 = PLANE('',#1766);
#1766 = AXIS2_PLACEMENT_3D('',#1767,#1768,#1769);
#1767 = CARTESIAN_POINT('',(-0.3175,0.171911906294,2.6));
#1768 = DIRECTION('',(0.,-0.939692620786,-0.342020143326));
#1769 = DIRECTION('',(0.,0.342020143326,-0.939692620786));
#1770 = ADVANCED_FACE('',(#1771),#1777,.F.);
#1771 = FACE_BOUND('',#1772,.T.);
#1772 = EDGE_LOOP('',(#1773,#1774,#1775,#1776));
#1773 = ORIENTED_EDGE('',*,*,#1742,.T.);
#1774 = ORIENTED_EDGE('',*,*,#1602,.F.);
#1775 = ORIENTED_EDGE('',*,*,#1759,.T.);
#1776 = ORIENTED_EDGE('',*,*,#1648,.F.);
#1777 = PLANE('',#1778);
#1778 = AXIS2_PLACEMENT_3D('',#1779,#1780,#1781);
#1779 = CARTESIAN_POINT('',(0.171911906294,0.3175,2.6));
#1780 = DIRECTION('',(-0.939692620786,1.604435875472E-16,-0.342020143326
    ));
#1781 = DIRECTION('',(-0.342020143326,-1.232595164408E-32,0.939692620786
    ));
#1782 = ADVANCED_FACE('',(#1783),#1799,.T.);
#1783 = FACE_BOUND('',#1784,.T.);
#1784 = EDGE_LOOP('',(#1785,#1791,#1792,#1798));
#1785 = ORIENTED_EDGE('',*,*,#1786,.F.);
#1786 = EDGE_CURVE('',#1679,#1525,#1787,.T.);
#1787 = LINE('',#1788,#1789);
#1788 = CARTESIAN_POINT('',(-0.3175,-0.3175,-8.2));
#1789 = VECTOR('',#1790,1.);
#1790 = DIRECTION('',(-0.323615577118,-0.323615577118,0.889126490716));
#1791 = ORIENTED_EDGE('',*,*,#1704,.F.);
#1792 = ORIENTED_EDGE('',*,*,#1793,.F.);
#1793 = EDGE_CURVE('',#1556,#1697,#1794,.T.);
#1794 = LINE('',#1795,#1796);
#1795 = CARTESIAN_POINT('',(0.250998328487,-0.250998328487,
    -8.382711840839));
#1796 = VECTOR('',#1797,1.);
#1797 = DIRECTION('',(-0.323615577118,0.323615577118,-0.889126490716));
#1798 = ORIENTED_EDGE('',*,*,#1555,.F.);
#1799 = PLANE('',#1800);
#1800 = AXIS2_PLACEMENT_3D('',#1801,#1802,#1803);
#1801 = CARTESIAN_POINT('',(-0.3175,-0.3175,-8.2));
#1802 = DIRECTION('',(0.,-0.939692620786,-0.342020143326));
#1803 = DIRECTION('',(0.,0.342020143326,-0.939692620786));
#1804 = ADVANCED_FACE('',(#1805),#1816,.T.);
#1805 = FACE_BOUND('',#1806,.T.);
#1806 = EDGE_LOOP('',(#1807,#1808,#1809,#1815));
#1807 = ORIENTED_EDGE('',*,*,#1793,.T.);
#1808 = ORIENTED_EDGE('',*,*,#1696,.F.);
#1809 = ORIENTED_EDGE('',*,*,#1810,.F.);
#1810 = EDGE_CURVE('',#1587,#1689,#1811,.T.);
#1811 = LINE('',#1812,#1813);
#1812 = CARTESIAN_POINT('',(0.250998328487,0.250998328487,
    -8.382711840839));
#1813 = VECTOR('',#1814,1.);
#1814 = DIRECTION('',(-0.323615577118,-0.323615577118,-0.889126490716));
#1815 = ORIENTED_EDGE('',*,*,#1586,.F.);
#1816 = PLANE('',#1817);
#1817 = AXIS2_PLACEMENT_3D('',#1818,#1819,#1820);
#1818 = CARTESIAN_POINT('',(0.3175,-0.3175,-8.2));
#1819 = DIRECTION('',(0.939692620786,-1.604435875472E-16,-0.342020143326
    ));
#1820 = DIRECTION('',(-0.342020143326,-1.232595164408E-32,
    -0.939692620786));
#1821 = ADVANCED_FACE('',(#1822),#1833,.T.);
#1822 = FACE_BOUND('',#1823,.T.);
#1823 = EDGE_LOOP('',(#1824,#1825,#1826,#1832));
#1824 = ORIENTED_EDGE('',*,*,#1786,.T.);
#1825 = ORIENTED_EDGE('',*,*,#1524,.F.);
#1826 = ORIENTED_EDGE('',*,*,#1827,.F.);
#1827 = EDGE_CURVE('',#1681,#1517,#1828,.T.);
#1828 = LINE('',#1829,#1830);
#1829 = CARTESIAN_POINT('',(-0.250998328487,0.250998328487,
    -8.382711840839));
#1830 = VECTOR('',#1831,1.);
#1831 = DIRECTION('',(-0.323615577118,0.323615577118,0.889126490716));
#1832 = ORIENTED_EDGE('',*,*,#1678,.F.);
#1833 = PLANE('',#1834);
#1834 = AXIS2_PLACEMENT_3D('',#1835,#1836,#1837);
#1835 = CARTESIAN_POINT('',(-0.3175,-0.3175,-8.2));
#1836 = DIRECTION('',(-0.939692620786,-1.604435875472E-16,
    -0.342020143326));
#1837 = DIRECTION('',(-0.342020143326,0.,0.939692620786));
#1838 = ADVANCED_FACE('',(#1839),#1845,.T.);
#1839 = FACE_BOUND('',#1840,.T.);
#1840 = EDGE_LOOP('',(#1841,#1842,#1843,#1844));
#1841 = ORIENTED_EDGE('',*,*,#1810,.T.);
#1842 = ORIENTED_EDGE('',*,*,#1688,.F.);
#1843 = ORIENTED_EDGE('',*,*,#1827,.T.);
#1844 = ORIENTED_EDGE('',*,*,#1617,.F.);
#1845 = PLANE('',#1846);
#1846 = AXIS2_PLACEMENT_3D('',#1847,#1848,#1849);
#1847 = CARTESIAN_POINT('',(-0.3175,0.3175,-8.2));
#1848 = DIRECTION('',(0.,0.939692620786,-0.342020143326));
#1849 = DIRECTION('',(0.,0.342020143326,0.939692620786));
#1850 = ( GEOMETRIC_REPRESENTATION_CONTEXT(3) 
GLOBAL_UNCERTAINTY_ASSIGNED_CONTEXT((#1854)) 
GLOBAL_UNIT_ASSIGNED_CONTEXT((#1851,#1852,#1853)) REPRESENTATION_CONTEXT
('Context #1','3D Context with UNIT and UNCERTAINTY') );
#1851 = ( LENGTH_UNIT() NAMED_UNIT(*) SI_UNIT(.MILLI.,.METRE.) );
#1852 = ( NAMED_UNIT(*) PLANE_ANGLE_UNIT() SI_UNIT($,.RADIAN.) );
#1853 = ( NAMED_UNIT(*) SI_UNIT($,.STERADIAN.) SOLID_ANGLE_UNIT() );
#1854 = UNCERTAINTY_MEASURE_WITH_UNIT(LENGTH_MEASURE(1.E-07),#1851,
  'distance_accuracy_value','confusion accuracy');
#1855 = SHAPE_DEFINITION_REPRESENTATION(#1856,#1507);
#1856 = PRODUCT_DEFINITION_SHAPE('','',#1857);
#1857 = PRODUCT_DEFINITION('design','',#1858,#1861);
#1858 = PRODUCT_DEFINITION_FORMATION('','',#1859);
#1859 = PRODUCT('NAUO3','NAUO3','',(#1860));
#1860 = PRODUCT_CONTEXT('',#2,'mechanical');
#1861 = PRODUCT_DEFINITION_CONTEXT('part definition',#2,'design');
#1862 = CONTEXT_DEPENDENT_SHAPE_REPRESENTATION(#1863,#1865);
#1863 = ( REPRESENTATION_RELATIONSHIP('','',#1507,#10) 
REPRESENTATION_RELATIONSHIP_WITH_TRANSFORMATION(#1864) 
SHAPE_REPRESENTATION_RELATIONSHIP() );
#1864 = ITEM_DEFINED_TRANSFORMATION('','',#11,#23);
#1865 = PRODUCT_DEFINITION_SHAPE('Placement','Placement of an item',
  #1866);
#1866 = NEXT_ASSEMBLY_USAGE_OCCURRENCE('3','NAUO3','',#5,#1857,$);
#1867 = PRODUCT_RELATED_PRODUCT_CATEGORY('part',$,(#1859));
#1868 = CONTEXT_DEPENDENT_SHAPE_REPRESENTATION(#1869,#1871);
#1869 = ( REPRESENTATION_RELATIONSHIP('','',#1507,#10) 
REPRESENTATION_RELATIONSHIP_WITH_TRANSFORMATION(#1870) 
SHAPE_REPRESENTATION_RELATIONSHIP() );
#1870 = ITEM_DEFINED_TRANSFORMATION('','',#11,#27);
#1871 = PRODUCT_DEFINITION_SHAPE('Placement','Placement of an item',
  #1872);
#1872 = NEXT_ASSEMBLY_USAGE_OCCURRENCE('4','NAUO4','',#5,#1857,$);
#1873 = SHAPE_DEFINITION_REPRESENTATION(#1871,#1874);
#1874 = SHAPE_REPRESENTATION('',(#27),#1850);
#1875 = MECHANICAL_DESIGN_GEOMETRIC_PRESENTATION_REPRESENTATION('',(
    #1876),#652);
#1876 = STYLED_ITEM('color',(#1877),#38);
#1877 = PRESENTATION_STYLE_ASSIGNMENT((#1878,#1884));
#1878 = SURFACE_STYLE_USAGE(.BOTH.,#1879);
#1879 = SURFACE_SIDE_STYLE('',(#1880));
#1880 = SURFACE_STYLE_FILL_AREA(#1881);
#1881 = FILL_AREA_STYLE('',(#1882));
#1882 = FILL_AREA_STYLE_COLOUR('',#1883);
#1883 = COLOUR_RGB('',0.752941202324,0.752941202324,0.752941202324);
#1884 = CURVE_STYLE('',#1885,POSITIVE_LENGTH_MEASURE(0.1),#1886);
#1885 = DRAUGHTING_PRE_DEFINED_CURVE_FONT('continuous');
#1886 = COLOUR_RGB('',9.803921802644E-02,9.803921802644E-02,
  9.803921802644E-02);
#1887 = MECHANICAL_DESIGN_GEOMETRIC_PRESENTATION_REPRESENTATION('',(
    #1888),#1489);
#1888 = STYLED_ITEM('color',(#1889),#671);
#1889 = PRESENTATION_STYLE_ASSIGNMENT((#1890,#1895));
#1890 = SURFACE_STYLE_USAGE(.BOTH.,#1891);
#1891 = SURFACE_SIDE_STYLE('',(#1892));
#1892 = SURFACE_STYLE_FILL_AREA(#1893);
#1893 = FILL_AREA_STYLE('',(#1894));
#1894 = FILL_AREA_STYLE_COLOUR('',#1883);
#1895 = CURVE_STYLE('',#1896,POSITIVE_LENGTH_MEASURE(0.1),#1886);
#1896 = DRAUGHTING_PRE_DEFINED_CURVE_FONT('continuous');
#1897 = MECHANICAL_DESIGN_GEOMETRIC_PRESENTATION_REPRESENTATION('',(
    #1898,#1908),#1850);
#1898 = STYLED_ITEM('color',(#1899),#1508);
#1899 = PRESENTATION_STYLE_ASSIGNMENT((#1900,#1906));
#1900 = SURFACE_STYLE_USAGE(.BOTH.,#1901);
#1901 = SURFACE_SIDE_STYLE('',(#1902));
#1902 = SURFACE_STYLE_FILL_AREA(#1903);
#1903 = FILL_AREA_STYLE('',(#1904));
#1904 = FILL_AREA_STYLE_COLOUR('',#1905);
#1905 = COLOUR_RGB('',0.913725491704,0.639215714193,0.337254907675);
#1906 = CURVE_STYLE('',#1907,POSITIVE_LENGTH_MEASURE(0.1),#1886);
#1907 = DRAUGHTING_PRE_DEFINED_CURVE_FONT('continuous');
#1908 = OVER_RIDING_STYLED_ITEM('overriding color',(#1909),#1508,#1898);
#1909 = PRESENTATION_STYLE_BY_CONTEXT((#1910,#1916),#1874);
#1910 = SURFACE_STYLE_USAGE(.BOTH.,#1911);
#1911 = SURFACE_SIDE_STYLE('',(#1912));
#1912 = SURFACE_STYLE_FILL_AREA(#1913);
#1913 = FILL_AREA_STYLE('',(#1914));
#1914 = FILL_AREA_STYLE_COLOUR('',#1915);
#1915 = COLOUR_RGB('',0.913725491704,0.639215714193,0.337254907675);
#1916 = CURVE_STYLE('',#1917,POSITIVE_LENGTH_MEASURE(0.1),#1918);
#1917 = DRAUGHTING_PRE_DEFINED_CURVE_FONT('continuous');
#1918 = COLOUR_RGB('',9.803921802644E-02,9.803921802644E-02,
  9.803921802644E-02);
ENDSEC;
END-ISO-10303-21;
