**ABCDEFGHIJKLMNOPQRSTUVWXYZabcdefghijklmnopqrstuvwxyz**************************
**PARASOLID !"#$%&'()*+,-./:;<=>?@[\]^_`{|}~0123456789**************************
**PART1;
MC=unknown;
MC_MODEL=unknown;
MC_ID=unknown;
OS=unknown;
OS_RELEASE=unknown;
FRU=sdl_parasolid_customer_support;
APPL=parasolid_acceptance_tests;
SITE=unknown;
USER=unknown;
FORMAT=text;
GUISE=transmit;
KEY=resource\cube214.x_t;
FILE=resource\cube214.x_t.xmt_txt;
DATE=unknown;
**PART2;
SCH=SCH_3600142_36001;
USFLD_SIZE=0;
**PART3;
**END_OF_HEADER*****************************************************************
T51 : TRANSMIT FILE created by modeller version 360014223 SCH_3600142_36001_1300
6231 0 12 36 CCCI7 lattice222 0 CCCI4 mesh1006 0 I8 polyline1008 0 CCCCCCCDI5 ow
ner1040 0 CCCI16 boundary_lattice222 0 CCCI13 boundary_mesh1006 0 I17 boundary_p
olyline1008 0 CCCA16 index_map_offset0 0 1 dA9 index_map82 0 A17 node_id_index_m
ap82 0 A20 schema_embedding_map82 0 A5 child12 0 A14 lowest_node_id0 0 1 dA16 me
sh_offset_data206 0 Z1 62 0 0 0 0 0 0 0 0 0 1e3 1e-8 0 0 0 1 0 6 1 0 0 2 3 4 0 0
 5 6 7 0 0 0 0 0 0 0 50 255 2 62 0 8 9 0 0 +0 0 .005 0 0 1 1 0 0 30 255 3 56 0 6
 10 0 0 +0 .01 .005 1 0 0 29 255 4 44 0 7 11 0 .02 .01 .005 19 9 CCCCCCI5 frame2
30 0 CA5 owner12 0 Z5 1 0 1 12 0 13 0 V0 16 255 6 30 0 ?14 0 15 3 0 0 1 18 255 7
 21 0 14 0 16 4 ?1 17 255 14 0 17 18 19 7 20 6 0 21 +18 16 19 0 22 7 23 11 ?1 17
 22 0 24 25 26 16 27 15 0 18 +18 23 17 0 28 16 29 30 ?1 29 11 43 0 16 30 4 .02 .
01 0 29 30 42 0 23 31 11 .02 0 .005 29 31 41 0 29 32 30 .02 0 0 18 29 16 0 33 23
 34 31 ?1 29 32 40 0 34 35 31 0 .01 0 18 34 11 0 27 29 36 32 ?1 29 35 39 0 36 37
 32 0 .01 .005 18 36 9 0 20 34 38 35 ?1 29 37 38 0 38 39 35 0 0 .005 18 38 7 0 4
0 36 41 37 ?1 29 39 37 0 41 0 37 0 0 0 18 41 6 0 42 38 0 39 ?1 17 42 0 24 26 25
 41 33 43 0 44 -15 255 24 32 0 26 45 0 17 26 0 24 22 42 34 44 46 0 47 +17 25 0 2
4 42 22 29 48 49 0 50 -17 33 0 51 52 53 29 42 43 0 25 +16 43 25 0 ?33 54 55 56 0
 0 1 17 44 0 57 58 47 41 26 46 0 53 -15 57 4 0 58 59 0 17 58 0 57 60 44 38 53 61
 0 0 +17 47 0 57 44 60 34 19 62 0 0 -16 46 12 0 ?26 63 62 64 0 0 1 17 53 0 51 33
 40 41 58 61 0 0 -15 51 24 0 33 65 0 17 40 0 51 53 52 38 28 54 0 66 -16 61 5 0 ?
58 67 0 68 0 0 1 16 67 8 0 ?60 62 61 69 0 0 1 30 68 45 0 61 0 69 0 +0 0 0 0 0 1
 30 69 46 0 67 68 70 0 +0 0 .005 0 1 0 30 70 47 0 62 69 64 0 +0 .01 0 0 0 1 16 6
2 10 0 ?19 46 67 70 0 0 1 30 64 48 0 46 70 71 0 +0 0 0 0 1 0 30 71 49 0 63 64 72
 0 +.02 0 0 0 0 1 16 63 15 0 ?52 49 46 71 0 0 1 30 72 50 0 49 71 73 0 +.02 0 0 0
 1 0 16 49 18 0 ?48 74 63 72 0 0 1 30 73 51 0 74 72 75 0 +.02 .01 0 0 0 1 16 74
 20 0 ?76 55 49 73 0 0 1 30 75 52 0 55 73 56 0 +.02 0 .005 0 1 0 16 55 22 0 ?21
 43 74 75 0 0 1 30 56 53 0 43 75 77 0 +0 0 0 1 0 0 30 77 54 0 54 56 10 0 +0 0 .0
05 1 0 0 16 54 26 0 ?28 15 43 77 0 0 1 30 10 55 0 15 77 3 0 +0 .01 0 1 0 0 16 15
 29 0 ?22 6 54 10 0 0 1 17 28 0 78 21 66 23 40 54 0 79 +15 78 34 0 66 8 0 17 21
 0 78 20 28 7 79 55 0 76 +17 66 0 78 28 20 38 60 67 0 58 -17 79 0 80 50 76 23 21
 55 0 52 -15 80 14 0 50 81 0 17 50 0 80 48 79 29 52 63 0 0 -17 76 0 80 79 48 7 1
8 74 0 0 +17 52 0 51 40 33 23 50 63 0 0 +17 48 0 80 76 50 16 25 49 0 0 +17 18 0
 17 27 14 16 76 74 0 48 -15 17 28 0 27 82 0 17 27 0 17 19 18 34 22 15 0 26 -17 1
9 0 17 14 27 36 47 62 0 60 +17 60 0 57 47 58 36 66 67 0 0 +14 255 82 27 0 ?65 45
 17 83 84 +0 0 65 45 13 14 65 23 0 ?81 82 51 83 85 -0 0 81 82 13 14 45 31 0 ?82
 8 24 83 9 -0 0 82 8 13 13 255 83 36 0 0 0 8 0 0 12 0 50 84 60 0 82 85 9 0 +0 .0
1 0 0 1 0 0 0 1 13 13 2 0 0 0 0 0 0 5 8 14 8 33 0 ?45 0 78 83 2 +0 0 45 0 13 50
 85 59 0 65 86 84 0 +0 0 0 0 1 0 0 0 1 50 9 61 0 45 84 2 0 +0 0 0 0 0 1 1 0 0 50
 86 58 0 81 87 85 0 +.02 0 0 1 0 0 0 0 1 14 81 13 0 ?59 65 80 83 86 +0 0 59 65 1
3 50 87 57 0 59 0 86 0 +0 0 0 1 0 0 0 0 1 14 59 3 0 ?0 81 57 83 87 -0 0 0 81 13
 19 12 35 0 1 0 5 83 0 S0 17 20 0 78 66 21 36 14 6 0 19 -1 0 
