**ABCDEFGHIJKLMNOPQRSTUVWXYZabcdefghijklmnopqrstuvwxyz**************************
**PARASOLID !"#$%&'()*+,-./:;<=>?@[\]^_`{|}~0123456789**************************
**PART1;
MC=unknown;
MC_MODEL=unknown;
MC_ID=unknown;
OS=unknown;
OS_RELEASE=unknown;
FRU=sdl_parasolid_customer_support;
APPL=parasolid_acceptance_tests;
SITE=unknown;
USER=unknown;
FORMAT=text;
GUISE=transmit;
KEY=D:\workspace\PKToSTEP/resource/cube214_roundtrip;
FILE=D:\workspace\pktostep/resource/cube214_roundtrip.xmt_txt;
DATE=unknown;
**PART2;
SCH=SCH_3600142_36001;
USFLD_SIZE=0;
**PART3;
**END_OF_HEADER*****************************************************************
T51 : TRANSMIT FILE created by modeller version 360014223 SCH_3600142_36001_1300
6231 0 12 36 CCCI7 lattice222 0 CCCI4 mesh1006 0 I8 polyline1008 0 CCCCCCCDI5 ow
ner1040 0 CCCI16 boundary_lattice222 0 CCCI13 boundary_mesh1006 0 I17 boundary_p
olyline1008 0 CCCA16 index_map_offset0 0 1 dA9 index_map82 0 A17 node_id_index_m
ap82 0 A20 schema_embedding_map82 0 A5 child12 0 A14 lowest_node_id0 0 1 dA16 me
sh_offset_data206 0 Z1 62 0 0 0 0 0 0 0 0 0 1e3 1e-8 0 2 0 1 0 6 1 0 0 3 4 5 0 0
 6 7 8 0 0 0 0 0 0 0 50 255 3 62 0 9 10 0 0 +0 0 0 1 0 0 0 0 1 30 255 4 56 0 7 1
1 0 0 +0 0 0 0 0 1 29 255 5 44 0 8 12 0 .02 0 0 19 9 CCCCCCI5 frame230 0 CA5 own
er12 0 Z6 1 0 1 13 0 14 0 V0 16 255 7 30 0 ?15 0 16 4 0 0 1 18 255 8 21 0 17 0 1
8 5 ?1 17 255 17 0 19 20 21 8 22 16 0 23 -18 18 19 0 24 8 25 12 ?1 17 24 0 26 27
 28 18 29 30 0 20 -18 25 17 0 31 18 32 33 ?1 29 12 43 0 18 33 5 .02 .01 0 29 33
 42 0 25 34 12 0 .01 0 29 34 41 0 32 35 33 0 0 0 18 32 16 0 36 25 37 34 ?1 29 35
 40 0 37 38 34 .02 .01 .005 18 37 11 0 29 32 39 35 ?1 29 38 39 0 39 40 35 .02 0
 .005 18 39 9 0 22 37 41 38 ?1 29 40 38 0 41 42 38 0 .01 .005 18 41 7 0 43 39 44
 40 ?1 29 42 37 0 44 0 40 0 0 .005 18 44 6 0 15 41 0 42 ?1 17 15 0 45 46 47 44 3
6 7 0 48 +15 255 45 34 0 15 9 0 17 46 0 45 31 15 41 49 50 0 0 +17 47 0 45 15 31
 32 51 52 0 0 -17 36 0 53 23 48 32 15 7 0 54 -17 48 0 53 36 22 44 55 56 0 49 -15
 53 28 0 23 57 0 17 22 0 53 48 23 39 17 16 0 21 +17 55 0 58 59 49 39 48 56 0 0 +
16 56 8 0 ?55 60 50 61 0 0 1 17 49 0 58 55 62 44 46 50 0 0 -15 58 4 0 49 63 0 17
 62 0 58 49 59 41 28 64 0 46 -16 50 5 0 ?46 56 0 65 0 0 1 30 65 45 0 50 0 61 0 +
0 0 .005 0 1 0 30 61 46 0 56 65 66 0 +0 0 .005 1 0 0 30 66 47 0 60 61 67 0 +.02
 0 .005 0 1 0 16 60 10 0 ?59 64 56 66 0 0 1 30 67 48 0 64 66 68 0 +0 .01 .005 1
 0 0 16 64 12 0 ?28 52 60 67 0 0 1 30 68 49 0 52 67 69 0 +0 0 0 0 1 0 16 52 15 0
 ?51 70 64 68 0 0 1 30 69 50 0 70 68 71 0 +0 .01 0 1 0 0 16 70 18 0 ?72 73 52 69
 0 0 1 30 71 51 0 73 69 74 0 +.02 0 0 0 1 0 16 73 20 0 ?20 75 70 71 0 0 1 30 74
 52 0 75 71 76 0 +0 0 0 1 0 0 16 75 22 0 ?23 77 73 74 0 0 1 30 76 53 0 77 74 78
 0 +0 .01 0 0 0 1 16 77 25 0 ?43 30 75 76 0 0 1 30 78 54 0 30 76 11 0 +.02 .01 0
 0 0 1 16 30 26 0 ?29 16 77 78 0 0 1 30 11 55 0 16 78 4 0 +.02 0 0 0 0 1 16 16 2
9 0 ?22 7 30 11 0 0 1 17 29 0 19 21 20 37 24 30 0 28 +15 19 32 0 17 79 0 17 21 0
 19 17 29 39 59 60 0 55 -17 20 0 19 29 17 18 80 73 0 72 +17 28 0 26 24 43 37 62
 64 0 59 +15 26 24 0 27 81 0 17 43 0 26 28 27 41 31 77 0 62 +17 59 0 58 62 55 37
 21 60 0 0 +17 27 0 26 43 24 25 72 70 0 51 -17 31 0 45 47 46 25 43 77 0 27 -17 7
2 0 82 80 51 18 27 70 0 0 +17 51 0 82 72 54 25 47 52 0 0 +15 82 14 0 51 83 0 17
 54 0 82 51 80 32 23 75 0 47 -17 80 0 82 54 72 8 20 73 0 0 -17 23 0 53 22 36 8 5
4 75 0 80 +14 255 83 13 0 ?63 81 82 84 85 -0 0 63 81 14 14 63 3 0 ?0 83 58 84 86
 +0 0 0 83 14 14 81 23 0 ?83 57 26 84 87 +0 0 83 57 14 13 255 84 36 0 0 0 9 0 0
 13 0 50 85 58 0 83 86 87 0 +0 0 0 0 0 1 1 0 0 13 14 2 0 0 0 0 0 0 6 9 14 9 33 0
 ?79 0 45 84 3 -0 0 79 0 14 14 79 31 0 ?57 9 19 84 10 +0 0 57 9 14 14 57 27 0 ?8
1 79 53 84 88 -0 0 81 79 14 50 10 61 0 79 88 3 0 +.02 0 0 1 0 0 0 0 1 50 88 60 0
 57 87 10 0 +0 0 0 0 1 0 0 0 1 50 87 59 0 81 85 88 0 +0 .01 0 0 1 0 0 0 1 50 86
 57 0 63 0 85 0 +0 0 .005 0 0 1 1 0 0 19 13 35 0 1 0 6 84 0 S0 1 0 
